<?xml version="1.0" encoding="UTF-8" standalone="no"?>
<svg width="30px" height="26px" viewBox="0 0 30 26" version="1.1" xmlns="http://www.w3.org/2000/svg" xmlns:xlink="http://www.w3.org/1999/xlink">
    <!-- Generator: Sketch 3.8.1 (29687) - http://www.bohemiancoding.com/sketch -->
    <title>Slice 1</title>
    <desc>Created with Sketch.</desc>
    <defs></defs>
    <g id="Page-1" stroke="none" stroke-width="1" fill="none" fill-rule="evenodd">
        <path d="M30,0.578203128 C29.5545051,2.82904941 29.1711876,4.87969307 28.7406858,6.92030456 C27.5321941,12.6475767 26.306835,18.3711005 25.0822476,24.0949551 C24.7510754,25.6432181 24.1890529,25.8596265 22.867892,24.9649986 C20.7554016,23.534476 18.6293512,22.123246 16.5446422,20.6539175 C15.971926,20.2503152 15.63447,20.3081932 15.1570044,20.7818002 C14.1286508,21.8015548 13.0331589,22.7537299 11.97074,23.7391986 C11.2117119,24.4433253 10.7858404,24.3917312 10.4553297,23.4162947 C9.65540117,21.0566379 8.88722284,18.684744 8.17284346,16.2978569 C7.93438626,15.500905 7.55977806,15.039094 6.73868274,14.7688866 C4.92307872,14.1718065 3.14716244,13.4536789 1.35757593,12.7776643 C1.08791976,12.6760196 0.812310431,12.567209 0.573742994,12.409781 C-0.199065569,11.8996832 -0.191458751,11.2720656 0.598327347,10.7941591 C0.918144414,10.6006813 1.27169606,10.4561518 1.62249162,10.3218749 C10.3918293,6.96307912 19.1619387,3.60637797 27.9362373,0.261031911 C28.334107,0.109336535 28.7863268,-0.038390066 29.1900393,0.00901473882 C29.4926583,0.0446234643 29.7582355,0.397072676 30,0.578203128 L30,0.578203128 Z M11.1067599,20.9786955 C11.1678349,20.9844282 11.2286895,20.9901609 11.2897645,20.9954526 C11.4238209,19.9655556 11.5781621,18.9374226 11.6850985,17.9045491 C11.7596233,17.1845472 12.0167117,16.6181149 12.5598825,16.0952289 C16.2970348,12.4967633 20.0017754,8.86500399 23.7145639,5.24096178 C23.8169803,5.14097072 23.887867,5.00878848 23.9736366,4.8915994 C22.7221498,5.57588224 21.5581964,6.33468985 20.3934714,7.09294624 C16.89643,9.37036126 13.3980656,11.6456817 9.90344957,13.9271757 C9.55485888,14.1546085 9.09536301,14.3134697 9.27847785,14.9114317 C9.89705543,16.9310969 10.4985452,18.9559435 11.1067599,20.9786955 L11.1067599,20.9786955 Z" id="Shape" fill="#FFD530"></path>
    </g>
</svg>