<svg viewBox="0 0 33 35" version="1.1" xmlns="http://www.w3.org/2000/svg" xmlns:xlink="http://www.w3.org/1999/xlink">
    <path d="M32.317,28.5117754 C32.317,32.4485791 22.2501343,34.2482582 16.2888412,34.2482582 C10.327548,34.2482582 0.317,32.4485791 0.317,28.5117754 C0.317,27.8931099 0.541994392,27.3307619 0.991891155,26.8246396 C6.44706194,15.63317 5.04114606,10.4029016 8.02183864,6.24119551 C9.37152893,4.38529085 10.9462136,3.20427734 13.4769174,2.64192939 C13.5894606,1.1796959 14.7704741,0.055 16.2889332,0.055 C17.7511667,0.055 18.9884058,1.17978792 19.100949,2.64192939 C21.6316528,3.20427734 23.2063375,4.38529085 24.5561198,6.24119551 C27.5368124,10.4029016 26.1307125,15.63317 31.5859753,26.8246396 C32.03578,27.3307619 32.317,27.8932019 32.317,28.5117754 L32.317,28.5117754 Z M28.9988618,27.3870795 C26.6930604,24.6314734 20.7317673,24.0690334 16.2888412,24.0690334 C11.9022327,24.0690334 5.88462197,24.6313813 3.57891257,27.3870795 C5.88471399,30.1428697 11.9022327,30.8175769 16.2888412,30.7615353 C20.7317673,30.7615353 26.6930604,30.1989113 28.9988618,27.3870795 L28.9988618,27.3870795 Z M13.7581374,26.0372972 C13.7581374,25.6999437 15.5014989,25.6437181 16.2888412,25.6437181 C18.257197,25.6437181 18.819637,25.8124869 18.819637,26.0372972 C18.819637,27.6120739 17.6947571,28.849405 16.2888412,28.849405 C14.8829253,28.849405 13.7581374,27.6120739 13.7581374,26.0372972 L13.7581374,26.0372972 Z" fill="#ffd530"></path>
</svg>