<?xml version="1.0" encoding="UTF-8" standalone="no"?>
<svg width="12px" height="20px" viewBox="0 0 12 20" version="1.1" xmlns="http://www.w3.org/2000/svg" xmlns:xlink="http://www.w3.org/1999/xlink">
    <!-- Generator: Sketch 48.2 (47327) - http://www.bohemiancoding.com/sketch -->
    <title>microphone</title>
    <desc>Created with Sketch.</desc>
    <defs></defs>
    <g id="Page-1" stroke="none" stroke-width="1" fill="none" fill-rule="evenodd">
        <g id="microphone" fill-rule="nonzero">
            <g id="Group" transform="translate(1.250000, 9.062500)" fill="#3F556B">
                <rect id="Rectangle-path" x="0" y="0" width="1" height="1"></rect>
                <rect id="Rectangle-path" x="8.4375" y="0" width="1" height="1"></rect>
            </g>
            <path d="M5.9375,0 C4.0390625,0 2.5,1.5390625 2.5,3.4375 L2.5,10.3125 C2.5,12.2109375 4.0390625,13.75 5.9375,13.75 C7.8359375,13.75 9.375,12.2109375 9.375,10.3125 L9.375,3.4375 C9.375,1.5390625 7.8359375,0 5.9375,0 Z" id="Shape" fill="#C9D5E3"></path>
            <path d="M11.25,7.8125 C10.9046875,7.8125 10.625,8.0921875 10.625,8.4375 L10.625,10.3125 C10.625,12.90125 8.52625,15 5.9375,15 C3.34875,15 1.25,12.90125 1.25,10.3125 L1.25,8.4375 C1.25,8.0921875 0.9703125,7.8125 0.625,7.8125 C0.2796875,7.8125 0,8.0921875 0,8.4375 L0,10.3125 C0.0034375,13.2271875 2.121875,15.7084375 5,16.16875 L5,18.125 L6.875,18.125 L6.875,16.16875 C9.753125,15.7084375 11.8715625,13.2271875 11.875,10.3125 L11.875,8.4375 C11.875,8.0921875 11.5953125,7.8125 11.25,7.8125 Z" id="Shape" fill="#576D7E"></path>
            <path d="M2.5,8.75 L9.375,8.75 C9.5475,8.75 9.6875,8.89 9.6875,9.0625 L9.6875,9.6875 C9.6875,9.86 9.5475,10 9.375,10 L2.5,10 C2.3275,10 2.1875,9.86 2.1875,9.6875 L2.1875,9.0625 C2.1875,8.89 2.3275,8.75 2.5,8.75 Z" id="Shape" fill="#F6B545"></path>
            <path d="M2.5,10.3125 C2.5,12.2109375 4.0390625,13.75 5.9375,13.75 C7.8359375,13.75 9.375,12.2109375 9.375,10.3125 L9.375,10 L2.5,10 L2.5,10.3125 Z" id="Shape" fill="#35495C"></path>
            <path d="M9.375,10 L8.75,10 L8.75,8.75 L9.375,8.75 C9.5475,8.75 9.6875,8.89 9.6875,9.0625 L9.6875,9.6875 C9.6875,9.86 9.5475,10 9.375,10 Z" id="Shape" fill="#F19920"></path>
            <g id="Group" transform="translate(3.750000, 1.875000)" fill="#82A7C4">
                <circle id="Oval" cx="1.5625" cy="1.5625" r="1"></circle>
                <circle id="Oval" cx="0.3125" cy="1.5625" r="1"></circle>
                <circle id="Oval" cx="2.8125" cy="1.5625" r="1"></circle>
                <circle id="Oval" cx="2.1875" cy="2.8125" r="1"></circle>
                <circle id="Oval" cx="0.9375" cy="2.8125" r="1"></circle>
                <circle id="Oval" cx="3.4375" cy="2.8125" r="1"></circle>
                <circle id="Oval" cx="2.1875" cy="0.3125" r="1"></circle>
                <circle id="Oval" cx="0.9375" cy="0.3125" r="1"></circle>
                <circle id="Oval" cx="3.4375" cy="0.3125" r="1"></circle>
                <circle id="Oval" cx="2.1875" cy="5.3125" r="1"></circle>
                <circle id="Oval" cx="0.9375" cy="5.3125" r="1"></circle>
                <circle id="Oval" cx="3.4375" cy="5.3125" r="1"></circle>
                <circle id="Oval" cx="4.0625" cy="1.5625" r="1"></circle>
                <circle id="Oval" cx="1.5625" cy="4.0625" r="1"></circle>
                <circle id="Oval" cx="0.3125" cy="4.0625" r="1"></circle>
                <circle id="Oval" cx="2.8125" cy="4.0625" r="1"></circle>
                <circle id="Oval" cx="4.0625" cy="4.0625" r="1"></circle>
            </g>
            <path d="M2.5,10 L2.5,10.3125 C2.5,10.41875 2.5,10.521875 2.515625,10.625 L8.35625,10.625 C8.52875,10.6203125 8.6725,10.7565625 8.6771875,10.9290625 C8.6778125,10.95625 8.675,10.983125 8.66875,11.009375 C8.3496875,12.2565625 7.2246875,13.1278125 5.9375,13.125 C5.765,13.125 5.625,13.265 5.625,13.4375 C5.625,13.61 5.765,13.75 5.9375,13.75 C7.714375,13.749375 9.1978125,12.394375 9.359375,10.625 C9.359375,10.521875 9.375,10.41875 9.375,10.3125 L9.375,10 L2.5,10 Z" id="Shape" fill="#123247"></path>
            <path d="M8.490625,18.125 L3.384375,18.125 C3.21875,18.125625 3.0603125,18.191875 2.94375,18.309375 L2.371875,18.88125 C2.254375,18.9978125 2.188125,19.15625 2.1875,19.321875 L2.1875,19.375 C2.1875,19.7203125 2.4671875,20 2.8125,20 L9.0625,20 C9.4078125,20 9.6875,19.7203125 9.6875,19.375 L9.6875,19.321875 C9.686875,19.15625 9.620625,18.9978125 9.503125,18.88125 L8.93125,18.309375 C8.8146875,18.191875 8.65625,18.125625 8.490625,18.125 Z" id="Shape" fill="#576D7E"></path>
            <g id="Group" transform="translate(2.226562, 16.132812)" fill="#3F556B">
                <path d="M7.2765625,2.7453125 L6.9640625,2.4328125 C7.0821875,2.5503125 7.1484375,2.71 7.1484375,2.8765625 L7.1484375,2.9296875 C7.1484375,3.275 6.86875,3.5546875 6.5234375,3.5546875 L0.2734375,3.5546875 C0.185,3.554375 0.0978125,3.535 0.0171875,3.4984375 C0.1178125,3.7225 0.3403125,3.8665625 0.5859375,3.8671875 L6.8359375,3.8671875 C7.18125,3.8671875 7.4609375,3.5875 7.4609375,3.2421875 L7.4609375,3.1890625 C7.4609375,3.0225 7.3946875,2.8628125 7.2765625,2.7453125 Z" id="Shape"></path>
                <path d="M3.7109375,0.1171875 C3.396875,0.115 3.0834375,0.0878125 2.7734375,0.0359375 L2.7734375,0.6609375 C3.0834375,0.7128125 3.396875,0.74 3.7109375,0.7421875 C3.856875,0.715625 3.996875,0.8125 4.0234375,0.9584375 C4.029375,0.9903125 4.029375,1.0228125 4.0234375,1.0546875 L4.0234375,1.9921875 L4.6484375,1.9921875 L4.6484375,0.0359375 C4.3384375,0.0878125 4.025,0.115 3.7109375,0.1171875 Z" id="Shape"></path>
            </g>
            <path d="M8.75,8.75 L9.375,8.75 L9.375,3.75 C9.375,3.5775 9.235,3.4375 9.0625,3.4375 C8.89,3.4375 8.75,3.5775 8.75,3.75 L8.75,8.75 Z" id="Shape" fill="#B0C4D9"></path>
            <path d="M6.25,0.3125 C6.25,0.485 6.11,0.625 5.9375,0.625 C4.3840625,0.625 3.125,1.8840625 3.125,3.4375 C3.125,3.61 2.985,3.75 2.8125,3.75 C2.64,3.75 2.5,3.61 2.5,3.4375 C2.5,1.5390625 4.0390625,0 5.9375,0 C6.11,0 6.25,0.14 6.25,0.3125 Z" id="Shape" fill="#D5E3EF"></path>
        </g>
    </g>
</svg>