<svg viewBox="0 0 50.001 50.001" version="1.1" xmlns="http://www.w3.org/2000/svg">
    <path d="M49.47 23.714l-7.44-7.444c-.71-.708-.49-1.465.488-1.685 0 0 .807-.182 1.8-1.176 2.135-2.14 2.133-5.6 0-7.73-2.134-2.14-5.592-2.14-7.727 0-.99.99-1.17 1.8-1.17 1.8-.22.98-.98 1.2-1.68.49L26.29.53c-.708-.71-1.868-.71-2.576 0l-7.44 7.44c-.708.71-.49 1.47.488 1.688 0 0 .808.184 1.8 1.176 2.132 2.133 2.135 5.594 0 7.73-2.132 2.132-5.595 2.13-7.726 0-.993-.996-1.175-1.803-1.175-1.803-.22-.97-.98-1.19-1.69-.49L.53 23.72c-.71.708-.71 1.867 0 2.574l7.44 7.44c.71.71.49 1.47-.49 1.69 0 0-.805.186-1.8 1.18-2.133 2.134-2.133 5.593 0 7.726 2.134 2.134 5.594 2.136 7.728 0 .994-.993 1.174-1.8 1.174-1.8.22-.978.98-1.197 1.686-.486l7.442 7.437c.708.71 1.868.71 2.576 0l7.443-7.44c.71-.71.48-1.47-.49-1.682 0 0-.81-.183-1.8-1.175-2.14-2.134-2.14-5.593 0-7.73 2.13-2.132 5.59-2.135 7.72 0 .99.995 1.17 1.8 1.17 1.8.22.98.98 1.2 1.69.49l7.44-7.443c.706-.71.706-1.87 0-2.577z"></path>
</svg>
