<svg viewBox="0 0 300 244" version="1.1" xmlns="http://www.w3.org/2000/svg">
    <path d="M300 151.472C300 69.192 232.5 0 150 0S0 69.19 0 151.472c0 26.18 5.625 54.23 16.875 72.93h91.875c9.375 11.22 24.375 18.7 41.25 18.7s31.875-7.48 41.25-18.7h91.875c11.25-18.7 16.875-46.75 16.875-72.93zm-37.5-57.97v18.7l-76.875 65.45c0 1.87 1.875 5.61 1.875 9.35 0 20.57-16.875 37.4-37.5 37.4s-37.5-16.83-37.5-37.4 16.875-37.4 37.5-37.4c5.625 0 11.25 1.87 15 3.74l78.75-59.84h18.75zm-75-56.1h18.75v18.7H187.5V37.4zm-93.75 0h18.75v18.7H93.75V37.4zM37.5 187H18.75v-18.7H37.5V187zm18.75-74.8H37.5V93.5h18.75v18.7zm225 74.8H262.5v-18.7h18.75V187z"></path>
    <path d="M168.75 187.003c0 10.322-8.4 18.7-18.75 18.7s-18.75-8.378-18.75-18.7c0-10.323 8.4-18.7 18.75-18.7s18.75 8.377 18.75 18.7z"></path>
</svg>
