<?xml version="1.0" encoding="UTF-8" standalone="no"?>
<svg width="54px" height="48px" viewBox="0 0 54 48" version="1.1" xmlns="http://www.w3.org/2000/svg" xmlns:xlink="http://www.w3.org/1999/xlink">
    <!-- Generator: Sketch 48.2 (47327) - http://www.bohemiancoding.com/sketch -->
    <title>servers</title>
    <desc>Created with Sketch.</desc>
    <defs></defs>
    <g id="Page-1" stroke="none" stroke-width="1" fill="none" fill-rule="evenodd">
        <g id="servers" fill="#000000" fill-rule="nonzero">
            <path d="M51.594,0 L2.406,0 C1.079,0 0,1.079 0,2.406 L0,13.594 C0,13.733 0.014,13.868 0.037,14 L53.963,14 C53.986,13.868 54,13.733 54,13.594 L54,2.406 C54,1.079 52.921,0 51.594,0 Z M9,12 C6.794,12 5,10.206 5,8 C5,5.794 6.794,4 9,4 C11.206,4 13,5.794 13,8 C13,10.206 11.206,12 9,12 Z M31,11 C30.448,11 30,10.552 30,10 C30,9.448 30.448,9 31,9 C31.552,9 32,9.448 32,10 C32,10.552 31.552,11 31,11 Z M33,7 C32.448,7 32,6.552 32,6 C32,5.448 32.448,5 33,5 C33.552,5 34,5.448 34,6 C34,6.552 33.552,7 33,7 Z M35,11 C34.448,11 34,10.552 34,10 C34,9.448 34.448,9 35,9 C35.552,9 36,9.448 36,10 C36,10.552 35.552,11 35,11 Z M37,7 C36.448,7 36,6.552 36,6 C36,5.448 36.448,5 37,5 C37.552,5 38,5.448 38,6 C38,6.552 37.552,7 37,7 Z M39,11 C38.448,11 38,10.552 38,10 C38,9.448 38.448,9 39,9 C39.552,9 40,9.448 40,10 C40,10.552 39.552,11 39,11 Z M41,7 C40.448,7 40,6.552 40,6 C40,5.448 40.448,5 41,5 C41.552,5 42,5.448 42,6 C42,6.552 41.552,7 41,7 Z M43,11 C42.448,11 42,10.552 42,10 C42,9.448 42.448,9 43,9 C43.552,9 44,9.448 44,10 C44,10.552 43.552,11 43,11 Z M45,7 C44.448,7 44,6.552 44,6 C44,5.448 44.448,5 45,5 C45.552,5 46,5.448 46,6 C46,6.552 45.552,7 45,7 Z M47,11 C46.448,11 46,10.552 46,10 C46,9.448 46.448,9 47,9 C47.552,9 48,9.448 48,10 C48,10.552 47.552,11 47,11 Z M49,7 C48.448,7 48,6.552 48,6 C48,5.448 48.448,5 49,5 C49.552,5 50,5.448 50,6 C50,6.552 49.552,7 49,7 Z" id="Shape"></path>
            <circle id="Oval" cx="9" cy="8" r="2"></circle>
            <circle id="Oval" cx="9" cy="22" r="2"></circle>
            <path d="M0.037,16 C0.014,16.132 0,16.267 0,16.406 L0,27.594 C0,27.733 0.014,27.868 0.037,28 L53.963,28 C53.986,27.868 54,27.733 54,27.594 L54,16.406 C54,16.267 53.986,16.132 53.963,16 L0.037,16 Z M9,26 C6.794,26 5,24.206 5,22 C5,19.794 6.794,18 9,18 C11.206,18 13,19.794 13,22 C13,24.206 11.206,26 9,26 Z M31,25 C30.448,25 30,24.552 30,24 C30,23.448 30.448,23 31,23 C31.552,23 32,23.448 32,24 C32,24.552 31.552,25 31,25 Z M33,21 C32.448,21 32,20.552 32,20 C32,19.448 32.448,19 33,19 C33.552,19 34,19.448 34,20 C34,20.552 33.552,21 33,21 Z M35,25 C34.448,25 34,24.552 34,24 C34,23.448 34.448,23 35,23 C35.552,23 36,23.448 36,24 C36,24.552 35.552,25 35,25 Z M37,21 C36.448,21 36,20.552 36,20 C36,19.448 36.448,19 37,19 C37.552,19 38,19.448 38,20 C38,20.552 37.552,21 37,21 Z M39,25 C38.448,25 38,24.552 38,24 C38,23.448 38.448,23 39,23 C39.552,23 40,23.448 40,24 C40,24.552 39.552,25 39,25 Z M41,21 C40.448,21 40,20.552 40,20 C40,19.448 40.448,19 41,19 C41.552,19 42,19.448 42,20 C42,20.552 41.552,21 41,21 Z M43,25 C42.448,25 42,24.552 42,24 C42,23.448 42.448,23 43,23 C43.552,23 44,23.448 44,24 C44,24.552 43.552,25 43,25 Z M45,21 C44.448,21 44,20.552 44,20 C44,19.448 44.448,19 45,19 C45.552,19 46,19.448 46,20 C46,20.552 45.552,21 45,21 Z M47,25 C46.448,25 46,24.552 46,24 C46,23.448 46.448,23 47,23 C47.552,23 48,23.448 48,24 C48,24.552 47.552,25 47,25 Z M49,21 C48.448,21 48,20.552 48,20 C48,19.448 48.448,19 49,19 C49.552,19 50,19.448 50,20 C50,20.552 49.552,21 49,21 Z" id="Shape"></path>
            <circle id="Oval" cx="9" cy="36" r="2"></circle>
            <path d="M0.037,30 C0.014,30.132 0,30.267 0,30.406 L0,41.594 C0,42.921 1.079,44 2.406,44 L3,44 C3,46.206 4.794,48 7,48 C9.206,48 11,46.206 11,44 L43,44 C43,46.206 44.794,48 47,48 C49.206,48 51,46.206 51,44 L51.594,44 C52.921,44 54,42.921 54,41.594 L54,30.406 C54,30.267 53.986,30.132 53.963,30 L0.037,30 Z M49,33 C49.552,33 50,33.448 50,34 C50,34.552 49.552,35 49,35 C48.448,35 48,34.552 48,34 C48,33.448 48.448,33 49,33 Z M47,37 C47.552,37 48,37.448 48,38 C48,38.552 47.552,39 47,39 C46.448,39 46,38.552 46,38 C46,37.448 46.448,37 47,37 Z M45,33 C45.552,33 46,33.448 46,34 C46,34.552 45.552,35 45,35 C44.448,35 44,34.552 44,34 C44,33.448 44.448,33 45,33 Z M7,46 C5.897,46 5,45.103 5,44 L9,44 C9,45.103 8.103,46 7,46 Z M9,40 C6.794,40 5,38.206 5,36 C5,33.794 6.794,32 9,32 C11.206,32 13,33.794 13,36 C13,38.206 11.206,40 9,40 Z M31,39 C30.448,39 30,38.552 30,38 C30,37.448 30.448,37 31,37 C31.552,37 32,37.448 32,38 C32,38.552 31.552,39 31,39 Z M33,35 C32.448,35 32,34.552 32,34 C32,33.448 32.448,33 33,33 C33.552,33 34,33.448 34,34 C34,34.552 33.552,35 33,35 Z M35,39 C34.448,39 34,38.552 34,38 C34,37.448 34.448,37 35,37 C35.552,37 36,37.448 36,38 C36,38.552 35.552,39 35,39 Z M37,35 C36.448,35 36,34.552 36,34 C36,33.448 36.448,33 37,33 C37.552,33 38,33.448 38,34 C38,34.552 37.552,35 37,35 Z M39,39 C38.448,39 38,38.552 38,38 C38,37.448 38.448,37 39,37 C39.552,37 40,37.448 40,38 C40,38.552 39.552,39 39,39 Z M41,35 C40.448,35 40,34.552 40,34 C40,33.448 40.448,33 41,33 C41.552,33 42,33.448 42,34 C42,34.552 41.552,35 41,35 Z M42,38 C42,37.448 42.448,37 43,37 C43.552,37 44,37.448 44,38 C44,38.552 43.552,39 43,39 C42.448,39 42,38.552 42,38 Z M47,46 C45.897,46 45,45.103 45,44 L49,44 C49,45.103 48.103,46 47,46 Z" id="Shape"></path>
        </g>
    </g>
</svg>