<?xml version="1.0" encoding="UTF-8"?>
<svg width="499px" height="498px" viewBox="0 0 499 498" version="1.1" xmlns="http://www.w3.org/2000/svg" xmlns:xlink="http://www.w3.org/1999/xlink" xmlns:sketch="http://www.bohemiancoding.com/sketch/ns">
    <!-- Generator: Sketch 3.3.3 (12081) - http://www.bohemiancoding.com/sketch -->
    <title>Untitled 7</title>
    <desc>Created with Sketch.</desc>
    <defs></defs>
    <g id="Page-1" stroke="none" stroke-width="1" fill="none" fill-rule="evenodd" sketch:type="MSPage">
        <g id="Group" sketch:type="MSLayerGroup" transform="translate(249.500000, 248.500000) scale(1, -1) translate(-249.500000, -248.500000) translate(0.000000, -0.500000)" fill="#000000">
            <path d="M33.8,496.4 C16.6,493.9 3.6,480.5 1,462.8 C-0.3,453.5 -0.3,42.5 1,33.2 C3,19.8 10.9,8.6 22.7,2.8 L28.5,0 L171.5,0 L314.5,0 L320.3,2.9 C327.7,6.7 334.8,13.8 338.6,21.2 L341.5,27 L341.8,75.8 L342.1,124.5 L339.6,127 C335.3,131.3 329.7,131.5 324.9,127.6 L322.5,125.7 L322,79.8 C321.4,29 321.7,31 314.6,24.7 C312.6,23 309.4,21.1 307.3,20.6 C301.8,19 41,19.1 35.5,20.6 C30.3,22.1 23.6,28.8 22.1,34 C20.5,39.7 20.5,456.3 22.1,462 C23.6,467.2 30.3,473.9 35.5,475.4 C41,476.9 301.8,477 307.3,475.4 C309.4,474.9 312.6,473 314.6,471.3 C321.7,465.1 321.4,466.7 322,419.2 L322.5,376.3 L324.9,374.4 C329.7,370.5 335.3,370.7 339.6,375 L342.1,377.5 L341.8,423.2 L341.5,469 L338.6,474.8 C332.6,486.6 321.4,494.6 308.3,496.5 C299.9,497.7 42.1,497.6 33.8,496.4 L33.8,496.4 Z" id="Shape" sketch:type="MSShapeGroup"></path>
            <path d="M399.1,341.1 C394.3,338.5 392.7,331.9 395.4,326.7 C396.2,325.2 411.5,309.4 429.4,291.5 L462,259 L303.9,258.5 L145.8,258 L143.4,255.2 C140.1,251.3 140.1,244.7 143.4,240.8 L145.8,238 L303.9,237.5 L462,237 L429.4,204.5 C411.5,186.6 396.2,170.8 395.4,169.3 C391.4,161.8 396.4,153.5 404.9,153.5 C406.4,153.5 409.5,154.8 411.6,156.4 C413.7,158 434,177.9 456.6,200.6 C488,232.2 497.9,242.7 498.3,245 C499.6,252.2 499.7,252.1 455.1,296.8 C431.7,320.4 411.3,340.3 409.8,341.1 C406.5,342.8 402.3,342.8 399.1,341.1 L399.1,341.1 Z" id="Shape" sketch:type="MSShapeGroup"></path>
        </g>
    </g>
</svg>