<?xml version="1.0" encoding="UTF-8" standalone="no"?>
<svg width="328px" height="328px" viewBox="0 0 328 328" version="1.1" xmlns="http://www.w3.org/2000/svg" xmlns:xlink="http://www.w3.org/1999/xlink">
    <!-- Generator: Sketch 48.2 (47327) - http://www.bohemiancoding.com/sketch -->
    <title>extension-manager (2)</title>
    <desc>Created with Sketch.</desc>
    <defs></defs>
    <g id="Page-1" stroke="none" stroke-width="1" fill="none" fill-rule="evenodd">
        <g id="extension-manager-(2)" fill="#3A12FF" fill-rule="nonzero">
            <polygon id="Shape" points="198.246 149 176.74 111.75 163.894 89.5 232.599 89.5 266.951 149"></polygon>
            <polygon id="Shape" points="137.914 104.5 150.76 126.75 172.266 164 150.76 201.25 137.914 223.5 103.561 164"></polygon>
            <polygon id="Shape" points="176.74 216.25 198.246 179 266.951 179 232.599 238.5 163.894 238.5"></polygon>
            <polygon id="Shape" points="198.246 0 284.271 0 327.284 74.5 292.932 134 249.919 59.5 163.894 59.5"></polygon>
            <polygon id="Shape" points="43.228 238.5 0.215 164 43.228 89.5 111.933 89.5 68.92 164 111.933 238.5"></polygon>
            <polygon id="Shape" points="284.271 328 198.246 328 163.894 268.5 249.919 268.5 292.932 194 327.284 253.5"></polygon>
            <polygon id="Shape" points="175 59.5 249.919 59.5 292.932 134 327.284 74.5 284.271 0 198.246 0 175 40.264"></polygon>
            <polygon id="Shape" points="266.951 179 198.246 179 176.74 216.25 175 219.264 175 238.5 232.599 238.5"></polygon>
            <polygon id="Shape" points="249.919 268.5 175 268.5 175 287.736 198.246 328 284.271 328 327.284 253.5 292.932 194"></polygon>
            <polygon id="Shape" points="232.599 89.5 175 89.5 175 108.736 176.74 111.75 198.246 149 266.951 149"></polygon>
        </g>
    </g>
</svg>