<?xml version="1.0" encoding="UTF-8" standalone="no"?>
<svg width="32px" height="32px" viewBox="0 0 32 32" version="1.1" xmlns="http://www.w3.org/2000/svg" xmlns:xlink="http://www.w3.org/1999/xlink">
    <!-- Generator: Sketch 48.2 (47327) - http://www.bohemiancoding.com/sketch -->
    <title>world</title>
    <desc>Created with Sketch.</desc>
    <defs></defs>
    <g id="Page-1" stroke="none" stroke-width="1" fill="none" fill-rule="evenodd">
        <g id="world" fill="#000000" fill-rule="nonzero">
            <path d="M28.755,6.968 L28.285,7.117 L25.782,7.34 L25.075,8.469 L24.562,8.306 L22.57,6.51 L22.281,5.576 L21.894,4.58 L20.642,3.457 L19.165,3.168 L19.131,3.844 L20.578,5.256 L21.286,6.09 L20.49,6.506 L19.842,6.315 L18.871,5.91 L18.904,5.127 L17.63,4.603 L17.207,6.444 L15.923,6.735 L16.05,7.762 L17.723,8.084 L18.012,6.443 L19.393,6.647 L20.035,7.023 L21.065,7.023 L21.77,8.435 L23.639,10.331 L23.502,11.068 L21.995,10.876 L19.391,12.191 L17.516,14.44 L17.272,15.436 L16.599,15.436 L15.345,14.858 L14.127,15.436 L14.43,16.721 L14.96,16.11 L15.892,16.081 L15.827,17.235 L16.599,17.461 L17.37,18.327 L18.629,17.973 L20.067,18.2 L21.737,18.649 L22.571,18.747 L23.985,20.352 L26.714,21.957 L24.949,25.329 L23.086,26.195 L22.379,28.122 L19.683,29.922 L19.396,30.96 C26.288,29.3 31.415,23.109 31.415,15.707 C31.413,12.474 30.433,9.465 28.755,6.968 Z" id="Shape"></path>
            <path d="M17.515,23.917 L16.371,21.796 L17.421,19.608 L16.371,19.294 L15.192,18.11 L12.58,17.524 L11.713,15.71 L11.713,16.787 L11.331,16.787 L9.08,13.735 L9.08,11.228 L7.43,8.545 L4.81,9.012 L3.045,9.012 L2.157,8.43 L3.29,7.532 L2.16,7.793 C0.798,10.119 0.004,12.818 0.004,15.709 C0.004,24.382 7.035,31.416 15.709,31.416 C16.377,31.416 17.032,31.357 17.68,31.279 L17.516,29.376 C17.516,29.376 18.237,26.55 18.237,26.454 C18.236,26.357 17.515,23.917 17.515,23.917 Z" id="Shape"></path>
            <path d="M5.84,5.065 L8.63,4.676 L9.916,3.971 L11.363,4.388 L13.675,4.26 L14.467,3.015 L15.622,3.205 L18.427,2.942 L19.2,2.09 L20.29,1.362 L21.832,1.594 L22.394,1.509 C20.363,0.553 18.103,0 15.708,0 C10.833,0 6.474,2.222 3.596,5.711 L3.604,5.711 L5.84,5.065 Z M16.372,1.562 L17.976,0.679 L19.006,1.274 L17.515,2.409 L16.091,2.552 L15.45,2.136 L16.372,1.562 Z M11.621,1.691 L12.329,1.986 L13.256,1.691 L13.761,2.566 L11.621,3.128 L10.592,2.526 C10.591,2.526 11.598,1.878 11.621,1.691 Z" id="Shape"></path>
        </g>
    </g>
</svg>