<?xml version="1.0" encoding="UTF-8"?>
<svg width="378px" height="156px" viewBox="0 0 378 156" version="1.1" xmlns="http://www.w3.org/2000/svg" xmlns:xlink="http://www.w3.org/1999/xlink" xmlns:sketch="http://www.bohemiancoding.com/sketch/ns">
    <g id="Page-1" stroke="none" stroke-width="1" fill="none" fill-rule="evenodd" sketch:type="MSPage">
        <g id="logo" sketch:type="MSLayerGroup">
            <g id="slogon" transform="translate(6.000000, 128.000000)" fill="#FFAC05" sketch:type="MSShapeGroup">
                <path d="M362.534,1.52 L365.239,1.52 L365.239,20.968 L362.534,20.968 L362.534,1.52 Z M362.022,24.441 C362.022,23.954 362.209,23.527 362.582,23.161 C362.954,22.796 363.389,22.613 363.886,22.613 C364.383,22.613 364.819,22.796 365.192,23.161 C365.564,23.527 365.751,23.954 365.751,24.441 C365.751,24.929 365.564,25.355 365.192,25.721 C364.819,26.086 364.383,26.269 363.886,26.269 C363.389,26.269 362.954,26.086 362.582,25.721 C362.209,25.355 362.022,24.929 362.022,24.441 L362.022,24.441 Z" id="Fill-18"></path>
                <path d="M336.068,1.52 L343.671,15.887 L350.033,1.52 L352.957,1.52 L341.954,25.903 L339.029,25.903 L342.136,19.104 L332.777,1.52 L336.068,1.52" id="Fill-17"></path>
                <path d="M314.937,23.417 L318.044,23.417 C318.824,23.417 319.586,23.362 320.329,23.253 C321.072,23.144 321.736,22.857 322.321,22.394 C322.808,22.053 323.199,21.59 323.491,21.005 C323.784,20.42 323.929,19.762 323.929,19.03 C323.929,18.056 323.704,17.282 323.254,16.709 C322.802,16.137 322.334,15.717 321.846,15.448 C320.968,14.961 319.591,14.717 317.715,14.717 L314.937,14.717 L314.937,23.417 L314.937,23.417 Z M314.937,12.231 L316.963,12.231 C317.323,12.231 317.769,12.194 318.299,12.121 C318.83,12.047 319.348,11.875 319.855,11.605 C320.361,11.334 320.796,10.928 321.157,10.387 C321.518,9.846 321.7,9.096 321.7,8.137 C321.7,7.129 321.495,6.342 321.085,5.777 C320.674,5.211 320.199,4.799 319.656,4.541 C319.113,4.283 318.589,4.129 318.083,4.08 C317.577,4.031 317.227,4.006 317.034,4.006 L314.937,4.006 L314.937,12.231 L314.937,12.231 Z M316.619,1.52 C316.96,1.52 317.355,1.533 317.806,1.557 C318.257,1.582 318.739,1.649 319.251,1.758 C319.762,1.868 320.274,2.021 320.786,2.216 C321.297,2.411 321.773,2.692 322.212,3.059 C322.406,3.205 322.632,3.413 322.888,3.681 C323.144,3.95 323.382,4.286 323.6,4.688 C323.82,5.091 324.008,5.58 324.168,6.153 C324.326,6.727 324.405,7.379 324.405,8.111 C324.405,8.405 324.38,8.753 324.332,9.155 C324.283,9.559 324.173,9.98 324.003,10.419 C323.832,10.858 323.589,11.291 323.272,11.719 C322.955,12.146 322.528,12.543 321.992,12.909 C322.845,13.128 323.564,13.457 324.149,13.895 C324.734,14.333 325.21,14.838 325.575,15.41 C325.94,15.982 326.209,16.584 326.38,17.217 C326.549,17.85 326.635,18.457 326.635,19.041 C326.635,20.21 326.384,21.25 325.885,22.162 C325.385,23.075 324.807,23.786 324.149,24.297 C323.661,24.687 323.162,24.984 322.65,25.191 C322.138,25.399 321.632,25.557 321.133,25.666 C320.633,25.776 320.14,25.843 319.653,25.867 C319.165,25.892 318.714,25.903 318.299,25.903 L312.231,25.903 L312.231,1.52 L316.619,1.52 L316.619,1.52 Z" id="Fill-16"></path>
                <path d="M225.482,3.604 C224.108,3.604 222.813,3.868 221.597,4.396 C220.382,4.923 219.32,5.642 218.412,6.549 C217.504,7.457 216.791,8.532 216.276,9.772 C215.76,11.011 215.503,12.33 215.503,13.73 C215.503,15.129 215.76,16.449 216.276,17.689 C216.791,18.929 217.504,20.002 218.412,20.91 C219.32,21.818 220.382,22.537 221.597,23.065 C222.813,23.592 224.108,23.857 225.482,23.857 C226.857,23.857 228.152,23.592 229.367,23.065 C230.583,22.537 231.638,21.818 232.535,20.91 C233.431,20.002 234.143,18.929 234.671,17.689 C235.199,16.449 235.463,15.129 235.463,13.73 C235.463,12.33 235.199,11.011 234.671,9.772 C234.143,8.532 233.431,7.457 232.535,6.549 C231.638,5.642 230.583,4.923 229.367,4.396 C228.152,3.868 226.857,3.604 225.482,3.604 L225.482,3.604 Z M225.482,26.342 C223.728,26.342 222.077,26.025 220.529,25.392 C218.981,24.758 217.634,23.881 216.49,22.76 C215.343,21.639 214.442,20.305 213.784,18.757 C213.127,17.209 212.798,15.533 212.798,13.73 C212.798,11.902 213.127,10.221 213.784,8.685 C214.442,7.149 215.35,5.822 216.507,4.701 C217.665,3.58 219.012,2.703 220.547,2.068 C222.083,1.435 223.728,1.118 225.482,1.118 C227.237,1.118 228.882,1.435 230.418,2.068 C231.953,2.703 233.299,3.58 234.458,4.701 C235.615,5.822 236.523,7.149 237.181,8.685 C237.838,10.221 238.168,11.902 238.168,13.73 C238.168,15.533 237.838,17.209 237.181,18.757 C236.523,20.305 235.621,21.639 234.475,22.76 C233.33,23.881 231.983,24.758 230.436,25.392 C228.888,26.025 227.237,26.342 225.482,26.342 L225.482,26.342 Z" id="Fill-13"></path>
                <path d="M265.951,1.52 L265.951,25.903 L263.246,25.903 L263.246,4.006 L253.814,4.006 L253.814,17.137 C253.814,17.699 253.808,18.305 253.796,18.952 C253.783,19.6 253.711,20.261 253.577,20.933 C253.442,21.606 253.229,22.266 252.937,22.914 C252.644,23.562 252.206,24.143 251.621,24.656 C251.085,25.145 250.457,25.512 249.738,25.756 C249.019,26 248.257,26.123 247.453,26.123 C247.355,26.123 247.179,26.11 246.923,26.087 C246.668,26.064 246.356,26.005 245.991,25.909 L245.991,23.417 C246.186,23.467 246.393,23.515 246.612,23.564 C246.832,23.612 247.075,23.637 247.343,23.637 C247.904,23.637 248.38,23.539 248.769,23.344 C249.159,23.149 249.476,22.928 249.719,22.683 C250.086,22.316 250.36,21.889 250.543,21.399 C250.725,20.91 250.859,20.379 250.944,19.804 C251.03,19.23 251.078,18.631 251.09,18.007 C251.102,17.383 251.109,16.754 251.109,16.117 L251.109,1.52 L265.951,1.52" id="Fill-14"></path>
                <path d="M289.091,3.604 C287.717,3.604 286.422,3.868 285.207,4.396 C283.991,4.923 282.929,5.642 282.021,6.549 C281.113,7.457 280.4,8.532 279.885,9.772 C279.37,11.011 279.112,12.33 279.112,13.73 C279.112,15.129 279.37,16.449 279.885,17.689 C280.4,18.929 281.113,20.002 282.021,20.91 C282.929,21.818 283.991,22.537 285.207,23.065 C286.422,23.592 287.717,23.857 289.091,23.857 C290.466,23.857 291.761,23.592 292.976,23.065 C294.192,22.537 295.248,21.818 296.144,20.91 C297.041,20.002 297.753,18.929 298.28,17.689 C298.808,16.449 299.072,15.129 299.072,13.73 C299.072,12.33 298.808,11.011 298.28,9.772 C297.753,8.532 297.041,7.457 296.144,6.549 C295.248,5.642 294.192,4.923 292.976,4.396 C291.761,3.868 290.466,3.604 289.091,3.604 L289.091,3.604 Z M289.091,26.342 C287.338,26.342 285.686,26.025 284.138,25.392 C282.59,24.758 281.244,23.881 280.099,22.76 C278.953,21.639 278.051,20.305 277.393,18.757 C276.736,17.209 276.407,15.533 276.407,13.73 C276.407,11.902 276.736,10.221 277.393,8.685 C278.051,7.149 278.96,5.822 280.117,4.701 C281.274,3.58 282.622,2.703 284.157,2.068 C285.692,1.435 287.338,1.118 289.091,1.118 C290.846,1.118 292.492,1.435 294.027,2.068 C295.562,2.703 296.909,3.58 298.067,4.701 C299.224,5.822 300.132,7.149 300.791,8.685 C301.448,10.221 301.777,11.902 301.777,13.73 C301.777,15.533 301.448,17.209 300.791,18.757 C300.132,20.305 299.23,21.639 298.085,22.76 C296.939,23.881 295.592,24.758 294.046,25.392 C292.498,26.025 290.846,26.342 289.091,26.342 L289.091,26.342 Z" id="Fill-15"></path>
                <path d="M195.139,1.52 L206.253,1.52 L206.253,4.006 L197.845,4.006 L197.845,25.903 L195.139,25.903 L195.139,1.52" id="Fill-11"></path>
                <path d="M166.663,7.296 L149.7,27 L149.7,1.52 L152.405,1.52 L152.405,20.2 L169.368,0.497 L169.368,25.903 L166.663,25.903 L166.663,7.296" id="Fill-9"></path>
                <path d="M135.224,15.448 C134.859,15.473 134.45,15.503 134,15.539 C133.548,15.576 133.091,15.607 132.629,15.631 C132.165,15.655 131.72,15.674 131.294,15.686 C130.867,15.698 130.496,15.704 130.179,15.704 C128.644,15.704 127.401,15.601 126.45,15.394 C125.5,15.187 124.732,14.851 124.147,14.388 C123.635,13.998 123.234,13.56 122.941,13.071 C122.649,12.585 122.423,12.085 122.265,11.573 C122.106,11.062 122.009,10.562 121.972,10.074 C121.936,9.587 121.917,9.136 121.917,8.722 L121.917,1.52 L124.623,1.52 L124.623,8.399 C124.623,8.645 124.628,8.939 124.641,9.282 C124.653,9.626 124.708,9.987 124.805,10.367 C124.902,10.747 125.048,11.121 125.244,11.489 C125.439,11.857 125.719,12.176 126.085,12.445 C126.524,12.789 127.102,13.004 127.821,13.09 C128.54,13.175 129.375,13.218 130.325,13.218 C131.373,13.218 132.305,13.188 133.122,13.126 C133.938,13.065 134.639,13.01 135.224,12.96 L135.224,1.52 L137.929,1.52 L137.929,25.903 L135.224,25.903 L135.224,15.448" id="Fill-7"></path>
                <path d="M99.728,3.604 C98.377,3.604 97.112,3.862 95.934,4.378 C94.755,4.893 93.723,5.599 92.839,6.494 C91.955,7.391 91.262,8.459 90.758,9.698 C90.255,10.938 90.003,12.282 90.003,13.73 C90.003,15.179 90.255,16.523 90.758,17.762 C91.262,19.001 91.955,20.069 92.839,20.965 C93.723,21.861 94.755,22.567 95.934,23.083 C97.112,23.599 98.377,23.857 99.728,23.857 C101.078,23.857 102.348,23.599 103.539,23.083 C104.73,22.567 105.767,21.861 106.651,20.965 C107.536,20.069 108.229,19.001 108.733,17.762 C109.236,16.523 109.488,15.179 109.488,13.73 C109.488,12.282 109.236,10.938 108.733,9.698 C108.229,8.459 107.536,7.391 106.651,6.494 C105.767,5.599 104.73,4.893 103.539,4.378 C102.348,3.862 101.078,3.604 99.728,3.604 L99.728,3.604 Z M87.408,11.683 C87.627,10.196 88.084,8.808 88.779,7.515 C89.473,6.224 90.362,5.103 91.447,4.152 C92.531,3.202 93.775,2.459 95.176,1.922 C96.577,1.387 98.094,1.118 99.728,1.118 C101.506,1.118 103.157,1.429 104.681,2.05 C106.204,2.672 107.526,3.544 108.648,4.664 C109.768,5.785 110.64,7.113 111.261,8.649 C111.882,10.184 112.193,11.878 112.193,13.73 C112.193,15.533 111.882,17.209 111.261,18.757 C110.64,20.305 109.768,21.639 108.648,22.76 C107.526,23.881 106.204,24.758 104.681,25.392 C103.157,26.025 101.506,26.342 99.728,26.342 C97.9,26.342 96.236,26.011 94.737,25.35 C93.238,24.688 91.953,23.799 90.88,22.683 C89.808,21.567 88.962,20.274 88.34,18.803 C87.718,17.332 87.371,15.787 87.298,14.169 L83.679,14.169 L83.679,25.903 L80.974,25.903 L80.974,1.52 L83.679,1.52 L83.679,11.683 L87.408,11.683 L87.408,11.683 Z" id="Fill-5"></path>
                <path d="M69.202,1.52 L69.202,25.903 L66.497,25.903 L66.497,4.006 L57.065,4.006 L57.065,17.137 C57.065,17.699 57.059,18.305 57.047,18.952 C57.034,19.6 56.961,20.261 56.827,20.933 C56.693,21.606 56.48,22.266 56.188,22.914 C55.895,23.562 55.457,24.143 54.872,24.656 C54.336,25.145 53.708,25.512 52.989,25.756 C52.27,26 51.508,26.123 50.704,26.123 C50.607,26.123 50.43,26.11 50.174,26.087 C49.918,26.064 49.608,26.005 49.242,25.909 L49.242,23.417 C49.437,23.467 49.644,23.515 49.863,23.564 C50.083,23.612 50.326,23.637 50.594,23.637 C51.155,23.637 51.63,23.539 52.02,23.344 C52.41,23.149 52.727,22.928 52.971,22.683 C53.336,22.316 53.61,21.889 53.793,21.399 C53.976,20.91 54.109,20.379 54.195,19.804 C54.28,19.23 54.329,18.631 54.341,18.007 C54.354,17.383 54.36,16.754 54.36,16.117 L54.36,1.52 L69.202,1.52" id="Fill-4"></path>
                <path d="M28.332,11.975 L38.714,1.52 L42.37,1.52 L30.964,12.889 L42.735,25.903 L39.007,25.903 L29.026,14.717 L28.332,15.411 L28.332,25.903 L25.627,25.903 L25.627,1.52 L28.332,1.52 L28.332,11.975" id="Fill-3"></path>
                <path d="M3.473,23.417 L6.58,23.417 C7.36,23.417 8.121,23.362 8.865,23.253 C9.608,23.144 10.273,22.857 10.858,22.394 C11.344,22.053 11.734,21.59 12.027,21.005 C12.319,20.42 12.466,19.762 12.466,19.03 C12.466,18.056 12.24,17.282 11.79,16.709 C11.339,16.137 10.869,15.717 10.382,15.448 C9.505,14.961 8.128,14.717 6.251,14.717 L3.473,14.717 L3.473,23.417 L3.473,23.417 Z M3.473,12.231 L5.498,12.231 C5.859,12.231 6.305,12.194 6.836,12.121 C7.366,12.047 7.885,11.875 8.391,11.605 C8.898,11.334 9.332,10.928 9.693,10.387 C10.055,9.846 10.236,9.096 10.236,8.137 C10.236,7.129 10.031,6.342 9.621,5.777 C9.211,5.211 8.734,4.799 8.192,4.541 C7.65,4.283 7.125,4.129 6.619,4.08 C6.113,4.031 5.763,4.006 5.57,4.006 L3.473,4.006 L3.473,12.231 L3.473,12.231 Z M5.154,1.52 C5.495,1.52 5.891,1.533 6.342,1.557 C6.793,1.582 7.275,1.649 7.787,1.758 C8.298,1.868 8.81,2.021 9.322,2.216 C9.834,2.411 10.309,2.692 10.748,3.059 C10.942,3.205 11.168,3.413 11.424,3.681 C11.68,3.95 11.918,4.286 12.137,4.688 C12.356,5.091 12.545,5.58 12.703,6.153 C12.862,6.727 12.941,7.379 12.941,8.111 C12.941,8.405 12.917,8.753 12.868,9.155 C12.819,9.559 12.709,9.98 12.539,10.419 C12.368,10.858 12.124,11.291 11.808,11.719 C11.491,12.146 11.064,12.543 10.529,12.909 C11.381,13.128 12.1,13.457 12.685,13.895 C13.27,14.333 13.745,14.838 14.111,15.41 C14.477,15.982 14.744,16.584 14.915,17.217 C15.086,17.85 15.171,18.457 15.171,19.041 C15.171,20.21 14.921,21.25 14.421,22.162 C13.922,23.075 13.343,23.786 12.685,24.297 C12.197,24.687 11.698,24.984 11.186,25.191 C10.674,25.399 10.169,25.557 9.669,25.666 C9.17,25.776 8.676,25.843 8.189,25.867 C7.701,25.892 7.25,25.903 6.836,25.903 L0.768,25.903 L0.768,1.52 L5.154,1.52 L5.154,1.52 Z" id="Fill-1"></path>
            </g>
            <g id="clear" sketch:type="MSShapeGroup">
                <path d="M365.441,116.163 L333.265,67.736 C346.558,68.018 356.335,65.595 361.258,60.797 C365.443,56.74 365.993,51.396 365.993,46.66 C365.993,35.953 359.738,32.059 347.952,32.059 L329.234,32.059 L329.234,116.163 L317.513,116.163 L317.478,24.459 L349.039,24.432 C358.732,24.432 367.198,27.42 372.34,32.56 C375.77,36.056 377.512,40.453 377.522,45.34 C377.595,62.986 366.152,69.528 348.119,71.399 L377.331,116.163 L365.441,116.163" id="Fill-22" fill="#FFAC05"></path>
                <path d="M223.378,116.163 L268.306,21.298 L268.427,21.01 L269.536,21.01 L313.183,115.285 L313.628,116.163 L300.809,116.163 L267.152,43.51 L252.759,76.469 L274.874,76.469 L278.819,84.437 L279.132,85.146 L248.456,85.146 C247.448,87.395 234.018,116.163 234.018,116.163 L223.378,116.163" id="Fill-27" fill="#FFAC05"></path>
                <path d="M215.893,116.017 L167.605,116.033 L167.605,24.514 L217.378,24.514 L217.349,25.039 L210.592,33.568 L179.308,33.587 L179.308,60.715 L214.857,60.709 L214.857,61.208 L210.276,69.544 L179.308,69.549 L179.308,107.276 L220.554,107.276 L220.541,107.811 L215.893,116.017" id="Fill-20" fill="#FFAC05"></path>
                <path d="M121.272,23.957 L121.774,23.957 L121.774,107.231 L158.874,107.231 L159.185,107.776 L154.553,115.97 L110.059,115.987 L110.059,28.418 L121.272,23.957" id="Fill-26" fill="#FFAC06"></path>
                <path d="M93.451,101.332 C89.227,103.278 80.497,108.869 62.117,108.869 C38.22,108.869 14.84,90.514 14.84,58.964 C14.84,29.883 35.683,8.896 61.451,8.896 C83.034,8.896 91.325,16.768 92.494,17.206 L100.572,12.052 C94.542,7.761 82.277,0.052 61.725,0.052 C23.672,0.052 0,26.323 0,58.334 C0,94.448 24.699,117.861 61.896,117.861 C72.303,117.861 81.734,115.917 90.202,112.023 C93.661,110.451 96.826,108.598 99.768,106.47 L93.451,101.332" id="Fill-24" fill="#FFAC06"></path>
            </g>
        </g>
    </g>
</svg>