<svg viewBox="0 0 942 942" version="1.1" xmlns="http://www.w3.org/2000/svg">
    <path d="M579.1 894c0 26.5 21.5 48 48 48s48-21.5 48-48v-77.5h-95.9V894h-.1zm0-846v77.5H675V48c0-26.5-21.5-48-48-48s-47.9 21.5-47.9 48zM423 48v77.5h96V48c0-26.5-21.5-48-48-48s-48 21.5-48 48zm0 846c0 26.5 21.5 48 48 48s48-21.5 48-48v-77.5h-96V894zM267 48v77.5h95.9V48c0-26.5-21.5-48-48-48S267 21.5 267 48zm0 846c0 26.5 21.5 48 48 48s48-21.5 48-48v-77.5h-96V894zM0 627c0 26.5 21.5 48 48 48h77.5v-95.9H48c-26.5 0-48 21.4-48 47.9zm894-47.9h-77.5V675H894c26.5 0 48-21.5 48-48s-21.5-47.9-48-47.9zM0 471c0 26.5 21.5 48 48 48h77.5v-96H48c-26.5 0-48 21.5-48 48zm894-48h-77.5v96H894c26.5 0 48-21.5 48-48s-21.5-48-48-48zM0 315c0 26.5 21.5 48 48 48h77.5v-96H48c-26.5 0-48 21.5-48 48zm894-48h-77.5v95.9H894c26.5 0 48-21.5 48-48S920.5 267 894 267zM171.6 720.4c0 27.6 22.4 50 50 50h498.8c27.6 0 50-22.4 50-50V221.6c0-27.6-22.4-50-50-50H221.6c-27.6 0-50 22.4-50 50v498.8z"></path>
</svg>
