<?xml version="1.0" encoding="UTF-8"?>
<svg width="79px" height="39px" viewBox="0 0 79 39" version="1.1" xmlns="http://www.w3.org/2000/svg" xmlns:xlink="http://www.w3.org/1999/xlink" xmlns:sketch="http://www.bohemiancoding.com/sketch/ns">
    <!-- Generator: Sketch 3.3.3 (12081) - http://www.bohemiancoding.com/sketch -->
    <title>Untitled 4</title>
    <desc>Created with Sketch.</desc>
    <defs></defs>
    <g id="Page-1" stroke="none" stroke-width="1" fill="none" fill-rule="evenodd" sketch:type="MSPage">
        <g id="re-send" sketch:type="MSLayerGroup" fill="#D80027">
            <g id="Group" transform="translate(18.489362, 0.000000)" sketch:type="MSShapeGroup">
                <path d="M48.8976383,37.8198261 L5.17534043,37.8198261 C4.02395745,37.8198261 3.02048936,37.362 2.34814894,36.5311304 C1.67748936,35.7019565 1.43544681,34.6167391 1.66908511,33.4789565 L7.59576596,4.43413043 C8.04791489,2.22808696 10.2279787,0.435782609 12.4584681,0.435782609 L56.180766,0.435782609 C57.3338298,0.435782609 58.335617,0.893608696 59.0079574,1.72447826 C59.678617,2.55365217 59.9206596,3.63886957 59.6870213,4.77665217 L53.7603404,33.8214783 C53.3098723,36.0258261 51.1281277,37.8198261 48.8976383,37.8198261 L48.8976383,37.8198261 Z M12.4584681,2.13143478 C11.0095745,2.13143478 9.53546809,3.34382609 9.24131915,4.77834783 L3.3146383,33.8214783 C3.18689362,34.4505652 3.30623404,35.0338696 3.65248936,35.4611739 C3.99874468,35.8901739 4.53829787,36.1258696 5.17534043,36.1258696 L48.8976383,36.1258696 C50.3482128,36.1258696 51.8206383,34.9151739 52.1147872,33.4806522 L52.1147872,33.4806522 L58.0414681,4.43582609 C58.1692128,3.80673913 58.0498723,3.22343478 57.703617,2.79613043 C57.3590426,2.36713043 56.8178085,2.13143478 56.180766,2.13143478 L12.4584681,2.13143478 L12.4584681,2.13143478 Z" id="Shape"></path>
                <path d="M30.1981702,23.4 C28.9358511,23.4 27.6718511,22.9150435 26.7910851,21.9773478 L10.179234,4.31204348 C9.85987234,3.97291304 9.8716383,3.4353913 10.2111702,3.11491304 C10.5456596,2.79443478 11.0801702,2.8046087 11.3978511,3.14713043 L28.0097021,20.8107391 C28.9913191,21.8467826 30.7831064,22.0129565 31.9260851,21.1634348 L56.3538936,3.0453913 C56.7253617,2.769 57.2514681,2.847 57.5288085,3.22682609 C57.8027872,3.60495652 57.7221064,4.134 57.3489574,4.41208696 L32.9194681,22.5284348 C32.1294681,23.1151304 31.1646596,23.4 30.1981702,23.4 L30.1981702,23.4 Z" id="Shape"></path>
            </g>
            <path d="M20.303,6.78091304 L9.24468085,6.78091304 C8.78076596,6.78091304 8.40425532,6.40108696 8.40425532,5.93308696 C8.40425532,5.46508696 8.78076596,5.08526087 9.24468085,5.08526087 L20.303,5.08526087 C20.7669149,5.08526087 21.1434255,5.46508696 21.1434255,5.93308696 C21.1434255,6.40108696 20.7669149,6.78091304 20.303,6.78091304 L20.303,6.78091304 Z" id="Shape" sketch:type="MSShapeGroup"></path>
            <path d="M18.0624255,18.0858261 L0.840425532,18.0858261 C0.376510638,18.0858261 0,17.706 0,17.238 C0,16.77 0.376510638,16.3901739 0.840425532,16.3901739 L18.0624255,16.3901739 C18.5263404,16.3901739 18.9028511,16.77 18.9028511,17.238 C18.9028511,17.706 18.5263404,18.0858261 18.0624255,18.0858261 L18.0624255,18.0858261 Z" id="Shape" sketch:type="MSShapeGroup"></path>
            <path d="M15.2604468,28.2597391 L6.86459574,28.2597391 C6.40068085,28.2597391 6.02417021,27.879913 6.02417021,27.411913 C6.02417021,26.943913 6.40068085,26.564087 6.86459574,26.564087 L15.2604468,26.564087 C15.7243617,26.564087 16.1008723,26.943913 16.1008723,27.411913 C16.1008723,27.879913 15.7243617,28.2597391 15.2604468,28.2597391 L15.2604468,28.2597391 Z" id="Shape" sketch:type="MSShapeGroup"></path>
        </g>
    </g>
</svg>