<?xml version="1.0" encoding="UTF-8"?>
<svg width="468px" height="416px" viewBox="0 0 468 416" version="1.1" xmlns="http://www.w3.org/2000/svg" xmlns:xlink="http://www.w3.org/1999/xlink" xmlns:sketch="http://www.bohemiancoding.com/sketch/ns">
    <!-- Generator: Sketch 3.3.3 (12081) - http://www.bohemiancoding.com/sketch -->
    <title>Untitled 5</title>
    <desc>Created with Sketch.</desc>
    <defs></defs>
    <g id="Page-1" stroke="none" stroke-width="1" fill="none" fill-rule="evenodd" sketch:type="MSPage">
        <g id="continuous" sketch:type="MSLayerGroup" fill="#D80027">
            <path d="M392.098,318.131 C385.501,313.117 376.091,314.402 371.079,320.999 C370.117,322.265 369.131,323.515 368.122,324.75 C353.076,343.161 332.807,358.11 307.801,369.224 C307.677,369.279 307.554,369.335 307.432,369.394 C267.976,388.225 221.814,390.799 177.536,376.668 C138.661,364.011 107.031,339.506 83.519,303.831 C66.057,275.834 56.906,245.403 56.255,213.307 C56.239,212.526 56.24,211.743 56.234,210.961 L74.636,210.961 C81.555,210.961 85.02,202.596 80.127,197.704 L46.7,164.277 C43.667,161.244 38.75,161.244 35.717,164.277 L2.29,197.704 C-2.602,202.596 0.863,210.961 7.781,210.961 L26.21,210.961 C26.45,249.683 37.193,286.312 58.173,319.881 C58.235,319.98 58.298,320.077 58.361,320.175 C85.717,361.756 122.688,390.361 168.332,405.221 C190.202,412.2 212.484,415.668 234.434,415.668 C264.267,415.667 293.479,409.261 320.171,396.555 C351.438,382.626 376.603,363.312 394.964,339.15 C399.977,332.554 398.693,323.144 392.098,318.131 L392.098,318.131 Z" id="Shape" sketch:type="MSShapeGroup"></path>
            <path d="M460.09,207.876 L441.662,207.876 C441.661,203.764 441.539,199.605 441.298,195.514 C439.385,163.103 429.73,131.188 413.377,103.219 C397.432,75.948 375.085,52.287 348.751,34.793 C321.977,17.006 290.977,5.567 259.102,1.714 C223.676,-2.569 187.65,2.292 154.917,15.766 C122.817,28.979 94.264,50.288 72.345,77.389 C67.135,83.829 68.134,93.275 74.574,98.485 C81.016,103.694 90.46,102.696 95.67,96.255 C96.79,94.87 97.934,93.505 99.094,92.155 C117.368,70.902 140.512,54.139 166.336,43.509 C194.331,31.986 225.166,27.831 255.502,31.498 C282.752,34.792 309.256,44.572 332.15,59.782 C354.696,74.761 373.829,95.016 387.479,118.362 C401.459,142.272 409.714,169.562 411.35,197.282 C411.454,199.045 411.532,200.822 411.585,202.602 C411.637,204.362 411.662,206.124 411.663,207.877 L393.237,207.877 C386.318,207.877 382.853,216.242 387.746,221.134 L421.173,254.561 C424.206,257.594 429.123,257.594 432.156,254.561 L465.583,221.134 C470.473,216.241 467.008,207.876 460.09,207.876 L460.09,207.876 Z" id="Shape" sketch:type="MSShapeGroup"></path>
        </g>
    </g>
</svg>