<svg viewBox="0 0 460 418" version="1.1" xmlns="http://www.w3.org/2000/svg">
    <path d="M17 34.231L65.733 34.231 135.15 285.264C137.133 292.631 143.933 297.731 151.583 297.731L364.933 297.731C371.733 297.731 377.683 293.764 380.516 287.531L458.149 109.031C460.416 103.648 459.849 97.698 456.732 92.881 453.615 88.064 448.232 85.231 442.565 85.231L206.833 85.231C197.483 85.231 189.833 92.881 189.833 102.231 189.833 111.581 197.483 119.231 206.833 119.231L416.5 119.231 353.6 263.731 164.333 263.731 94.917 12.698C92.934 5.331 86.134.231 78.484.231L17 .231C7.65.231 0 7.881 0 17.231 0 26.581 7.65 34.231 17 34.231zM135.433 417.298C156.683 417.298 173.966 400.015 173.966 378.765 173.966 357.515 156.683 340.232 135.433 340.232 114.183 340.232 96.9 357.514 96.9 378.764 96.9 400.014 114.183 417.298 135.433 417.298zM376.267 417.298L379.1 417.298C389.3 416.448 398.65 411.915 405.45 403.981 412.25 396.331 415.367 386.414 414.8 375.931 413.383 354.964 394.967 338.814 373.717 340.231 352.467 341.648 336.6 360.348 338.017 381.314 339.433 401.431 356.15 417.298 376.267 417.298z"></path>
</svg>
