<?xml version="1.0" encoding="UTF-8" standalone="no"?>
<svg width="142px" height="23px" viewBox="0 0 142 23" version="1.1" xmlns="http://www.w3.org/2000/svg" xmlns:xlink="http://www.w3.org/1999/xlink" xmlns:sketch="http://www.bohemiancoding.com/sketch/ns">
    <!-- Generator: Sketch 3.3.3 (12081) - http://www.bohemiancoding.com/sketch -->
    <title>Untitled 4</title>
    <desc>Created with Sketch.</desc>
    <defs></defs>
    <g id="Page-1" stroke="none" stroke-width="1" fill="none" fill-rule="evenodd" sketch:type="MSPage">
        <path d="M89.999,11 C89.999,4.925 94.925,0 101,0 C107.076,0 112.001,4.925 112.001,11 C112.001,17.075 107.076,22 101,22 C94.925,22 89.999,17.075 89.999,11 Z M105.459,5 L96.54,5 C95.693,5 94.999,5.693 94.999,6.54 L94.999,15.459 C94.999,16.306 95.693,16.999 96.54,16.999 L105.459,16.999 C106.306,16.999 106.999,16.306 106.999,15.459 L106.999,9.83203125 L106.999,6.54 C106.999,5.693 106.306,5 105.459,5 L105.459,5 Z M105.166,15.62 L96.81,15.62 C96.547,15.62 96.333,15.405 96.333,15.143 L96.333,10.074 L97.435,10.074 C97.335,10.401 97.281,10.746 97.281,11.104 C97.281,13.1 98.951,14.718 101.011,14.718 C103.07,14.718 104.74,13.1 104.74,11.104 C104.74,10.746 104.686,10.401 104.587,10.074 L105.643,10.074 L105.643,15.143 C105.643,15.405 105.428,15.62 105.166,15.62 L105.166,15.62 Z M105.097,8.706 L103.741,8.706 C103.443,8.706 103.2,8.463 103.2,8.166 L103.2,6.873 C103.2,6.576 103.443,6.333 103.741,6.333 L105.097,6.333 C105.394,6.333 105.637,6.576 105.637,6.873 L105.637,8.166 C105.637,8.463 105.394,8.706 105.097,8.706 L105.097,8.706 Z M101.011,13.309 C99.68,13.309 98.601,12.263 98.601,10.973 C98.601,9.684 99.68,8.638 101.011,8.638 C102.342,8.638 103.421,9.684 103.421,10.973 C103.421,12.263 102.342,13.309 101.011,13.309 L101.011,13.309 Z M71,22 C64.925,22 59.999,17.075 59.999,11 C59.999,4.925 64.925,0 71,0 C77.076,0 82.001,4.925 82.001,11 C82.001,17.075 77.076,22 71,22 L71,22 Z M77.47,7.449 C77.028,7.648 76.553,7.782 76.055,7.842 C76.563,7.533 76.954,7.044 77.138,6.461 C76.662,6.747 76.135,6.955 75.573,7.067 C75.124,6.582 74.484,6.279 73.775,6.279 C72.415,6.279 71.312,7.396 71.312,8.775 C71.312,8.971 71.334,9.161 71.376,9.344 C69.328,9.24 67.513,8.246 66.298,6.736 C66.086,7.105 65.965,7.533 65.965,7.991 C65.965,8.857 66.4,9.621 67.061,10.068 C66.657,10.055 66.277,9.943 65.945,9.756 L65.945,9.788 C65.945,10.997 66.794,12.006 67.921,12.235 C67.714,12.292 67.496,12.323 67.272,12.323 C67.113,12.323 66.959,12.307 66.808,12.278 C67.122,13.27 68.031,13.991 69.109,14.012 C68.266,14.681 67.204,15.08 66.05,15.08 C65.851,15.08 65.655,15.068 65.462,15.045 C66.553,15.753 67.847,16.167 69.238,16.167 C73.77,16.167 76.247,12.363 76.247,9.064 C76.247,8.956 76.245,8.849 76.24,8.741 C76.722,8.39 77.139,7.95 77.47,7.449 L77.47,7.449 Z M41.007,22.016 C34.931,22.016 30.006,17.091 30.006,11.015 C30.006,4.94 34.931,0.015 41.007,0.015 C47.082,0.015 52.007,4.94 52.007,11.015 C52.007,17.091 47.082,22.016 41.007,22.016 L41.007,22.016 Z M45.394,8.558 C45.394,7.544 44.783,6.024 42.38,6.024 L37.519,6.024 L37.519,15.969 L41.756,15.969 C45.394,15.969 45.706,13.846 45.706,12.997 C45.706,12.024 45.407,11.065 44.199,10.613 C44.607,10.407 45.394,9.983 45.394,8.558 L45.394,8.558 Z M42.068,14.257 L39.57,14.257 L39.57,11.586 L42.176,11.586 C42.923,11.586 43.656,11.928 43.656,12.791 C43.656,13.805 43.072,14.257 42.068,14.257 L42.068,14.257 Z M41.973,9.914 L39.57,9.914 L39.57,7.736 L41.918,7.736 C42.855,7.736 43.425,7.997 43.425,8.805 C43.425,9.599 42.787,9.914 41.973,9.914 L41.973,9.914 Z M11.007,22.016 C4.931,22.016 0.006,17.091 0.006,11.015 C0.006,4.94 4.931,0.015 11.007,0.015 C17.082,0.015 22.007,4.94 22.007,11.015 C22.007,17.091 17.082,22.016 11.007,22.016 L11.007,22.016 Z M15.992,10.944 L15.992,8.924 L14.076,8.924 L14.076,7.793 C14.076,7.262 14.481,6.832 14.98,6.832 L15.992,6.832 L15.992,5.007 L13.797,5.007 C12.463,5.007 11.619,6.032 11.619,7.451 L11.619,8.924 L9.993,8.924 L9.993,10.944 L11.619,10.944 L11.619,16.989 L14.076,16.989 L14.076,10.944 L15.992,10.944 L15.992,10.944 Z" id="Shape" fill="#FFFFFF" sketch:type="MSShapeGroup"></path>
        <path d="M131.085562,7.1872619 C131.786346,7.1872619 132.356209,7.71348659 132.356209,8.36048526 C132.356209,9.00682277 131.786346,9.53309832 131.085562,9.53309832 C130.385513,9.53309832 129.814934,9.00682277 129.814934,8.36048526 C129.814934,7.71348659 130.385513,7.1872619 131.085562,7.1872619 L131.085562,7.1872619 L131.085562,7.1872619 Z M134.13528,8.67760302 C134.147897,8.57348053 134.154376,8.46766917 134.154376,8.36048526 C134.154376,6.79774713 132.778314,5.52672124 131.085562,5.52672124 C129.393197,5.52672124 128.016767,6.79774713 128.016767,8.36048526 C128.016767,9.92247745 129.393197,11.1929778 131.085562,11.1929778 C132.662157,11.1929778 133.964034,10.0908585 134.13528,8.67760302 Z M120.245376,11.016 C120.245376,4.941 125.099349,0.016 131.085521,0.016 C137.072679,0.016 141.925666,4.941 141.925666,11.016 C141.925666,17.091 137.072679,22.016 131.085521,22.016 C125.099349,22.016 120.245376,17.091 120.245376,11.016 Z M132.327161,13.5043655 C132.951889,13.372911 133.5544,13.144773 134.109187,12.8228503 C134.529162,12.5784881 134.655749,12.0659954 134.39108,11.6782607 C134.12676,11.2896614 133.571972,11.1727697 133.151281,11.4171319 C131.894278,12.1470483 130.275782,12.1467261 129.019495,11.4171319 C128.598823,11.1727697 128.044016,11.2896614 127.780063,11.6782607 C127.515394,12.0662497 127.641633,12.5784881 128.061589,12.8228503 C128.616395,13.1443661 129.218887,13.372911 129.843634,13.5043655 L128.12793,15.0883459 C127.777199,15.4125064 127.777199,15.9379851 128.128298,16.2621456 C128.304021,16.4240648 128.533913,16.5051855 128.763786,16.5051855 C128.994027,16.5051855 129.224267,16.4240648 129.400009,16.2621456 L131.085214,14.7055784 L132.77185,16.2621456 C133.1226,16.5863231 133.691747,16.5863231 134.042846,16.2621456 C134.394312,15.9379851 134.394312,15.4122521 134.042846,15.0883459 L132.327161,13.5043655 Z" id="odnoklassniki" fill="#FFFFFF" sketch:type="MSShapeGroup"></path>
    </g>
</svg>