<?xml version="1.0" encoding="UTF-8" standalone="no"?>
<svg width="491px" height="362px" viewBox="0 0 491 362" version="1.1" xmlns="http://www.w3.org/2000/svg" xmlns:xlink="http://www.w3.org/1999/xlink">
    <!-- Generator: Sketch 48.2 (47327) - http://www.bohemiancoding.com/sketch -->
    <title>organization</title>
    <desc>Created with Sketch.</desc>
    <defs></defs>
    <g id="Page-1" stroke="none" stroke-width="1" fill="none" fill-rule="evenodd">
        <g id="organization" fill="#000000" fill-rule="nonzero">
            <path d="M177.3,12.95 L177.3,123.95 C177.3,130.75 182.8,136.25 189.6,136.25 L232.8,136.25 L232.8,169.65 L67.8,169.65 C61,169.65 55.5,175.15 55.5,181.95 L55.5,225.85 L12.3,225.85 C5.5,225.85 0,231.35 0,238.15 L0,349.15 C0,355.95 5.5,361.45 12.3,361.45 L123.3,361.45 C130.1,361.45 135.6,355.95 135.6,349.15 L135.6,238.15 C135.6,231.35 130.1,225.85 123.3,225.85 L80,225.85 L80,194.15 L232.7,194.15 L232.7,225.85 L189.5,225.85 C182.7,225.85 177.2,231.35 177.2,238.15 L177.2,349.15 C177.2,355.95 182.7,361.45 189.5,361.45 L300.5,361.45 C307.3,361.45 312.8,355.95 312.8,349.15 L312.8,238.15 C312.8,231.35 307.3,225.85 300.5,225.85 L257.3,225.85 L257.3,194.15 L410,194.15 L410,225.85 L366.8,225.85 C360,225.85 354.5,231.35 354.5,238.15 L354.5,349.15 C354.5,355.95 360,361.45 366.8,361.45 L477.8,361.45 C484.6,361.45 490.1,355.95 490.1,349.15 L490.1,238.15 C490.1,231.35 484.6,225.85 477.8,225.85 L434.6,225.85 L434.6,181.95 C434.6,175.15 429.1,169.65 422.3,169.65 L257.3,169.65 L257.3,136.25 L300.5,136.25 C307.3,136.25 312.8,130.75 312.8,123.95 L312.8,12.95 C312.8,6.15 307.3,0.65 300.5,0.65 L189.5,0.65 C182.8,0.65 177.3,6.15 177.3,12.95 Z M111,336.75 L24.6,336.75 L24.6,250.25 L111,250.25 L111,336.75 Z M288.2,336.75 L201.7,336.75 L201.7,250.25 L288.2,250.25 L288.2,336.75 Z M465.4,336.75 L379,336.75 L379,250.25 L465.5,250.25 L465.5,336.75 L465.4,336.75 Z M201.8,25.15 L288.3,25.15 L288.3,111.65 L201.8,111.65 L201.8,25.15 Z" id="Shape"></path>
        </g>
    </g>
</svg>