<svg viewBox="0 0 410 296" version="1.1" xmlns="http://www.w3.org/2000/svg">
    <path d="M291.517 219.587c-4.512 0-8.17 3.657-8.17 8.17v59.362c0 4.51 3.658 8.17 8.17 8.17H401.63c4.512 0 8.17-3.66 8.17-8.17v-59.365c0-4.513-3.658-8.17-8.17-8.17h-49.508V170.95c0-4.513-3.658-8.17-8.17-8.17h-106.27c-4.513 0-8.17 3.657-8.17 8.17s3.657 8.17 8.17 8.17h98.1v40.468h-44.265zM393.46 278.95h-93.772v-43.022h93.772v43.02z"></path>
    <path d="M149.944 219.587h46.886V179.12H74.22v40.467h44.263c4.512 0 8.17 3.657 8.17 8.17v59.362c0 4.51-3.658 8.17-8.17 8.17H8.37c-4.512 0-8.17-3.66-8.17-8.17v-59.366c0-4.513 3.658-8.17 8.17-8.17h49.51v-48.638c0-4.513 3.657-8.17 8.17-8.17h130.78V122.31H97.51c-4.513 0-8.17-3.657-8.17-8.17V8.243c0-4.513 3.657-8.17 8.17-8.17h214.98c4.512 0 8.17 3.657 8.17 8.17V114.14c0 4.513-3.658 8.17-8.17 8.17h-99.32v97.277h46.887c4.512 0 8.17 3.657 8.17 8.17v59.362c0 4.51-3.658 8.17-8.17 8.17H149.944c-4.512 0-8.17-3.66-8.17-8.17v-59.365c0-4.513 3.658-8.17 8.17-8.17zM105.68 16.413v89.558h198.642V16.416H105.68zm4.633 262.536v-43.024H16.54v43.02h93.773zm141.573 0v-43.024h-93.772v43.02h93.772z"></path>
</svg>
