<?xml version="1.0" encoding="UTF-8" standalone="no"?>
<svg width="385px" height="427px" viewBox="0 0 385 427" version="1.1" xmlns="http://www.w3.org/2000/svg" xmlns:xlink="http://www.w3.org/1999/xlink">
    <!-- Generator: Sketch 48.2 (47327) - http://www.bohemiancoding.com/sketch -->
    <title>clipboard (2)</title>
    <desc>Created with Sketch.</desc>
    <defs></defs>
    <g id="Page-1" stroke="none" stroke-width="1" fill="none" fill-rule="evenodd">
        <g id="clipboard-(2)" fill="#000000" fill-rule="nonzero">
            <path d="M341.667,42.667 L252.387,42.667 C243.64,17.92 220.173,0 192.333,0 C164.493,0 141.026,17.92 132.28,42.667 L43,42.667 C19.427,42.667 0.333,61.76 0.333,85.334 L0.333,384 C0.333,407.573 19.426,426.667 43,426.667 L341.667,426.667 C365.24,426.667 384.334,407.574 384.334,384 L384.334,85.333 C384.333,61.76 365.24,42.667 341.667,42.667 Z M192.333,42.667 C204.066,42.667 213.666,52.16 213.666,64 C213.666,75.84 204.066,85.333 192.333,85.333 C180.6,85.333 171,75.84 171,64 C171,52.16 180.6,42.667 192.333,42.667 Z M149.667,341.333 L64.333,256 L94.52,225.813 L149.667,280.96 L290.147,140.48 L320.334,170.667 L149.667,341.333 Z" id="Shape"></path>
        </g>
    </g>
</svg>