<?xml version="1.0" encoding="UTF-8" standalone="no"?>
<svg width="74px" height="56px" viewBox="0 0 74 56" version="1.1" xmlns="http://www.w3.org/2000/svg" xmlns:xlink="http://www.w3.org/1999/xlink">
    <!-- Generator: Sketch 48.2 (47327) - http://www.bohemiancoding.com/sketch -->
    <title>users</title>
    <desc>Created with Sketch.</desc>
    <defs></defs>
    <g id="Page-1" stroke="none" stroke-width="1" fill="none" fill-rule="evenodd">
        <g id="users" fill="#000000" fill-rule="nonzero">
            <path d="M55.014,43.389 L45.461,38.613 C44.56,38.162 44,37.256 44,36.248 L44,32.867 C44.229,32.587 44.47,32.268 44.719,31.916 C45.958,30.166 46.951,28.218 47.673,26.117 C49.084,25.47 50,24.075 50,22.5 L50,18.5 C50,17.537 49.64,16.604 49,15.875 L49,10.556 C49.056,10.006 49.276,6.732 46.908,4.031 C44.854,1.688 41.521,0.5 37,0.5 C32.479,0.5 29.146,1.688 27.092,4.03 C24.724,6.731 24.944,10.006 25,10.555 L25,15.874 C24.36,16.603 24,17.536 24,18.499 L24,22.499 C24,23.716 24.553,24.851 25.497,25.608 C26.413,29.235 28.33,31.968 29,32.845 L29,36.154 C29,37.122 28.472,38.01 27.623,38.474 L18.702,43.34 C15.802,44.922 14.001,47.956 14.001,51.26 L14.001,55.5 L60.001,55.5 L60.001,51.457 C60,48.019 58.089,44.927 55.014,43.389 Z" id="Shape"></path>
            <path d="M17.983,42.025 L26.904,37.159 C27.271,36.958 27.5,36.573 27.5,36.155 L27.5,33.341 C26.615,32.109 25.054,29.629 24.163,26.431 C23.1,25.399 22.5,23.994 22.5,22.5 L22.5,18.5 C22.5,17.376 22.852,16.281 23.5,15.359 L23.5,10.626 C23.466,10.243 23.426,9.357 23.596,8.231 C22.219,7.751 20.687,7.5 19,7.5 C8.611,7.5 8.006,16.355 8,16.5 L8,21.079 C7.352,21.785 7,22.6 7,23.409 L7,26.863 C7,27.942 7.483,28.948 8.311,29.628 C9.136,32.738 11.165,35.088 11.955,35.913 L11.955,38.656 C11.955,39.443 11.527,40.165 10.784,40.571 L4.131,44.744 C1.583,46.134 0,48.801 0,51.703 L0,55.5 L12.5,55.5 L12.5,51.262 C12.5,47.409 14.601,43.87 17.983,42.025 Z" id="Shape"></path>
            <path d="M63.983,41.525 L72.904,36.659 C73.271,36.458 73.5,36.073 73.5,35.655 L73.5,32.841 C72.615,31.609 71.054,29.129 70.163,25.931 C69.1,24.899 68.5,23.494 68.5,22 L68.5,18 C68.5,16.876 68.852,15.781 69.5,14.859 L69.5,10.126 C69.466,9.743 69.426,8.857 69.596,7.731 C68.219,7.251 66.687,7 65,7 C54.611,7 54.006,15.855 54,16 L54,20.579 C53.352,21.285 53,22.1 53,22.909 L53,26.363 C53,27.442 53.483,28.448 54.311,29.128 C55.136,32.238 57.165,34.588 57.955,35.413 L57.955,38.156 C57.955,38.943 57.527,39.665 56.784,40.071 L50.131,44.244 C47.583,45.634 46,48.301 46,51.203 L46,55 L58.5,55 L58.5,50.762 C58.5,46.909 60.601,43.37 63.983,41.525 Z" id="Shape" transform="translate(59.750000, 31.000000) scale(-1, 1) translate(-59.750000, -31.000000) "></path>
        </g>
    </g>
</svg>