<?xml version="1.0" encoding="UTF-8"?>
<svg width="513px" height="290px" viewBox="0 0 513 290" version="1.1" xmlns="http://www.w3.org/2000/svg" xmlns:xlink="http://www.w3.org/1999/xlink" xmlns:sketch="http://www.bohemiancoding.com/sketch/ns">
    <!-- Generator: Sketch 3.3.3 (12081) - http://www.bohemiancoding.com/sketch -->
    <title>Slice 1</title>
    <desc>Created with Sketch.</desc>
    <defs></defs>
    <g id="Page-1" stroke="none" stroke-width="1" fill="none" fill-rule="evenodd" sketch:type="MSPage">
        <g id="vk" sketch:type="MSLayerGroup" fill="#436EAB">
            <path d="M440.649,184.361 C457.633,200.943 475.558,216.543 490.791,234.797 C497.52,242.909 503.89,251.279 508.764,260.693 C515.67,274.075 509.415,288.801 497.416,289.6 L422.826,289.566 C403.588,291.162 388.241,283.418 375.337,270.264 C365.01,259.745 355.446,248.55 345.516,237.676 C341.445,233.232 337.184,229.05 332.094,225.744 C321.912,219.135 313.073,221.158 307.254,231.778 C301.328,242.58 299.983,254.54 299.401,266.578 C298.602,284.142 293.293,288.76 275.65,289.564 C237.945,291.342 202.161,285.638 168.918,266.617 C139.61,249.849 116.884,226.176 97.102,199.377 C58.589,147.194 29.094,89.852 2.586,30.904 C-3.381,17.623 0.983,10.494 15.637,10.241 C39.97,9.768 64.3,9.802 88.662,10.207 C98.552,10.352 105.099,16.024 108.918,25.367 C122.083,57.738 138.192,88.536 158.412,117.083 C163.797,124.683 169.288,132.284 177.106,137.633 C185.756,143.556 192.342,141.593 196.411,131.957 C198.993,125.847 200.124,119.266 200.706,112.723 C202.634,90.21 202.888,67.735 199.507,45.301 C197.431,31.3 189.545,22.236 175.574,19.587 C168.445,18.236 169.506,15.583 172.958,11.514 C178.953,4.496 184.592,0.127 195.833,0.127 L280.131,0.127 C293.402,2.746 296.349,8.708 298.166,22.061 L298.238,115.698 C298.093,120.867 300.82,136.208 310.131,139.629 C317.583,142.065 322.495,136.103 326.967,131.378 C347.15,109.957 361.555,84.641 374.424,58.427 C380.135,46.9 385.046,34.93 389.805,22.969 C393.331,14.094 398.864,9.727 408.861,9.92 L489.993,9.992 C492.399,9.992 494.833,10.027 497.163,10.426 C510.834,12.756 514.581,18.637 510.358,31.987 C503.705,52.932 490.76,70.387 478.103,87.922 C464.573,106.643 450.102,124.724 436.685,143.556 C424.357,160.756 425.336,169.424 440.649,184.361 L440.649,184.361 L440.649,184.361 Z" id="Shape" sketch:type="MSShapeGroup"></path>
        </g>
    </g>
</svg>