<?xml version="1.0" standalone="no"?>
<!DOCTYPE svg PUBLIC "-//W3C//DTD SVG 20010904//EN"
 "http://www.w3.org/TR/2001/REC-SVG-20010904/DTD/svg10.dtd">
<svg version="1.0" xmlns="http://www.w3.org/2000/svg"
 width="16.000000pt" height="16.000000pt" viewBox="0 0 16.000000 16.000000"
 preserveAspectRatio="xMidYMid meet">
<metadata>
Created by potrace 1.11, written by Peter Selinger 2001-2013
</metadata>
<g transform="translate(0.000000,16.000000) scale(0.002286,-0.002286)"
fill="#000000" stroke="none">
<path d="M0 3500 l0 -3500 3500 0 3500 0 0 3500 0 3500 -3500 0 -3500 0 0
-3500z m2293 2895 c230 -35 500 -156 772 -348 114 -81 280 -214 371 -299 l62
-58 78 73 c275 256 608 475 869 572 155 58 267 78 410 72 178 -6 273 -46 391
-163 248 -247 321 -823 187 -1474 -41 -195 -53 -172 117 -229 457 -153 775
-332 991 -559 151 -158 218 -292 227 -452 13 -261 -173 -529 -529 -760 -184
-119 -486 -258 -719 -331 -58 -18 -106 -33 -108 -35 -2 -1 8 -55 23 -120 85
-377 98 -786 35 -1075 -23 -107 -76 -250 -121 -325 -48 -81 -162 -193 -235
-232 -168 -88 -392 -88 -642 -1 -267 94 -601 311 -897 582 l-70 65 -77 -73
c-260 -245 -614 -471 -883 -565 -197 -69 -402 -89 -544 -54 -304 76 -475 357
-511 842 -17 217 13 537 76 816 13 60 24 112 24 116 0 5 -57 27 -126 49 -498
164 -887 402 -1085 664 -198 262 -211 514 -40 766 187 276 602 530 1144 701
83 26 107 38 107 52 0 9 -9 55 -19 100 -53 225 -81 477 -81 718 0 265 36 454
120 625 77 159 179 259 316 311 120 45 213 52 367 29z"/>
<path d="M2070 6120 c-145 -31 -242 -182 -286 -447 -24 -148 -14 -485 21 -693
14 -85 32 -180 39 -210 8 -30 17 -67 20 -81 l6 -26 82 18 c168 38 472 84 740
114 52 6 58 9 84 48 70 107 316 415 446 559 l78 86 -57 55 c-230 219 -517 411
-764 512 -139 56 -315 84 -409 65z"/>
<path d="M4660 6110 c-254 -65 -557 -251 -877 -538 -46 -41 -83 -77 -83 -81 0
-3 32 -42 71 -86 100 -113 289 -349 389 -487 80 -110 87 -117 125 -122 22 -3
101 -12 175 -21 153 -19 444 -67 570 -94 47 -11 88 -16 92 -13 9 9 43 174 62
297 62 400 40 755 -59 960 -43 88 -84 138 -143 172 -41 25 -58 28 -147 30 -73
2 -120 -3 -175 -17z"/>
<path d="M3470 5261 c-14 -17 -73 -85 -131 -153 -58 -68 -132 -157 -164 -198
l-57 -75 133 -2 c504 -10 627 -8 619 7 -22 40 -363 450 -373 450 -1 0 -13 -13
-27 -29z"/>
<path d="M3017 4541 c-64 -4 -119 -10 -121 -12 -13 -14 -185 -286 -253 -399
-94 -158 -161 -280 -267 -482 l-77 -147 67 -132 c122 -244 275 -510 436 -755
l99 -152 127 -6 c334 -15 499 -17 767 -6 251 9 292 13 306 28 61 65 400 644
533 910 l57 114 -84 161 c-137 264 -255 467 -420 724 -78 121 -96 142 -122
147 -47 10 -917 15 -1048 7z m598 -466 c110 -23 208 -77 290 -159 81 -82 127
-162 155 -272 25 -98 25 -180 0 -278 -28 -111 -73 -190 -156 -274 -228 -230
-589 -229 -820 2 -232 231 -232 592 0 821 146 145 334 201 531 160z"/>
<path d="M2440 4483 c-294 -45 -490 -85 -490 -98 0 -24 111 -338 171 -481 l31
-75 95 173 c97 177 204 361 255 435 15 23 28 44 28 47 0 6 -48 6 -90 -1z"/>
<path d="M4460 4488 c0 -3 36 -65 81 -138 88 -144 188 -320 255 -444 l42 -79
17 39 c42 99 111 280 150 396 43 127 43 128 22 133 -12 2 -52 11 -89 20 -143
31 -478 83 -478 73z"/>
<path d="M1530 4281 c-259 -86 -496 -195 -660 -303 -125 -83 -284 -241 -329
-327 -83 -159 -34 -312 160 -496 184 -174 471 -332 811 -446 81 -27 149 -49
152 -49 2 0 19 44 37 98 54 163 144 400 219 575 l71 167 -35 77 c-92 205 -204
496 -251 651 -20 67 -33 92 -44 91 -9 0 -68 -17 -131 -38z"/>
<path d="M5280 4198 c-64 -183 -130 -354 -208 -535 l-70 -163 63 -138 c69
-151 170 -405 230 -574 22 -65 43 -108 51 -108 22 0 193 59 334 117 386 156
667 365 778 578 38 72 38 178 0 255 -81 164 -277 327 -568 471 -138 69 -338
149 -467 188 -40 12 -79 24 -86 27 -10 4 -26 -28 -57 -118z"/>
<path d="M4811 3123 c-34 -70 -186 -338 -279 -491 -44 -72 -75 -132 -69 -132
56 0 582 92 594 103 10 11 -202 567 -216 567 -4 0 -17 -21 -30 -47z"/>
<path d="M2134 3123 c-36 -85 -129 -335 -159 -431 -33 -102 -33 -102 -11 -107
149 -32 576 -98 576 -90 0 1 -49 83 -109 181 -59 99 -146 249 -191 332 -45 84
-84 152 -86 152 -2 0 -11 -17 -20 -37z"/>
<path d="M5000 2304 c-134 -30 -391 -69 -591 -92 l-157 -17 -87 -120 c-123
-169 -268 -353 -373 -474 l-90 -104 77 -69 c467 -429 941 -641 1193 -535 118
50 215 252 248 517 21 172 7 483 -30 680 -35 180 -52 240 -68 239 -9 -1 -64
-12 -122 -25z"/>
<path d="M1837 2193 c-111 -530 -91 -958 53 -1181 68 -106 140 -142 284 -142
284 0 681 212 1084 578 l53 48 -99 111 c-118 133 -256 304 -376 465 -98 132
-74 120 -266 138 -160 16 -442 57 -584 86 -65 13 -120 24 -121 24 -1 0 -14
-57 -28 -127z"/>
<path d="M3120 2162 c0 -11 226 -285 342 -416 l44 -49 93 109 c89 105 273 337
279 353 1 4 -169 7 -378 7 -209 0 -380 -2 -380 -4z"/>
</g>
</svg>
