<svg version="1" xmlns="http://www.w3.org/2000/svg" viewBox="0 0 16.000000 16.000000"><path d="M0 7.999V16h16.002V-.002H0v8.001zm5.242-6.618c.526.08 1.143.357 1.765.796.26.185.64.489.848.683l.141.133.179-.167c.628-.585 1.39-1.086 1.986-1.308.355-.132.61-.178.938-.164.406.013.624.105.893.372.567.565.734 1.882.428 3.37-.094.446-.121.393.267.523 1.045.35 1.772.76 2.266 1.278.345.361.498.668.519 1.033.03.597-.396 1.21-1.21 1.738-.42.272-1.11.59-1.643.756a4.097 4.097 0 0 0-.247.08c-.005.003.018.126.052.275.195.862.224 1.797.08 2.457a2.89 2.89 0 0 1-.276.743 1.77 1.77 0 0 1-.537.53c-.384.202-.897.202-1.468.003-.61-.215-1.374-.711-2.05-1.33l-.16-.15-.177.168c-.594.56-1.403 1.076-2.018 1.291-.45.158-.92.204-1.244.124-.695-.174-1.086-.816-1.168-1.925-.039-.496.03-1.228.174-1.866a6.3 6.3 0 0 0 .055-.265c0-.011-.13-.061-.288-.112-1.139-.375-2.028-.919-2.48-1.518C.413 8.33.383 7.754.774 7.18c.427-.632 1.376-1.212 2.615-1.603.19-.06.245-.087.245-.119 0-.02-.02-.126-.044-.229a7.328 7.328 0 0 1-.185-1.641c0-.606.082-1.038.274-1.429.176-.363.41-.592.723-.71.274-.104.487-.12.839-.067z"/><path d="M4.732 2.01c-.331.07-.553.416-.654 1.022-.055.338-.032 1.108.048 1.584.032.194.073.411.09.48.018.068.038.153.045.185l.014.06.187-.042a18.3 18.3 0 0 1 1.692-.26c.119-.014.132-.02.192-.11.16-.245.722-.949 1.02-1.278l.178-.197-.13-.125c-.526-.5-1.182-.94-1.747-1.17-.318-.129-.72-.193-.935-.15zm5.921.023c-.58.148-1.274.573-2.005 1.23-.105.093-.19.175-.19.185 0 .006.073.096.163.196.228.258.66.798.889 1.113.183.252.199.268.286.28l.4.047c.35.044 1.015.154 1.303.215a.734.734 0 0 0 .21.03c.02-.02.098-.398.142-.679.141-.914.091-1.726-.135-2.195-.099-.2-.192-.315-.327-.393-.094-.057-.133-.064-.336-.068a1.335 1.335 0 0 0-.4.039zm-2.721 1.94c-.032.04-.166.195-.299.35-.133.156-.302.359-.375.453l-.13.171.304.005c1.152.023 1.433.018 1.415-.016-.05-.092-.83-1.029-.853-1.029-.002 0-.03.03-.062.066zM6.897 5.62a2.07 2.07 0 0 0-.277.027c-.03.032-.423.654-.578.912-.215.361-.368.64-.61 1.102l-.176.336.153.301c.279.558.628 1.166.996 1.726l.227.348.29.014c.764.034 1.14.038 1.753.013.574-.02.668-.03.7-.064.14-.148.914-1.472 1.218-2.08l.13-.26-.191-.369a19.26 19.26 0 0 0-.96-1.655c-.179-.276-.22-.324-.28-.336-.107-.023-2.096-.034-2.395-.016zm1.367 1.065c.251.052.475.176.663.363.185.187.29.37.354.622a1.2 1.2 0 0 1 0 .635 1.265 1.265 0 0 1-.356.627 1.309 1.309 0 0 1-1.875-.005 1.306 1.306 0 0 1 0-1.877c.334-.331.764-.46 1.214-.365zm-2.686-.933c-.672.103-1.12.194-1.12.224 0 .055.253.773.39 1.1l.071.17.218-.395c.221-.404.466-.825.583-.994a.762.762 0 0 0 .064-.107c0-.014-.11-.014-.206.002zm4.618-.012c0 .007.082.149.185.316.2.33.43.731.583 1.015l.096.18.039-.089c.096-.226.253-.64.342-.905.099-.29.099-.293.05-.304a4.49 4.49 0 0 1-.203-.046c-.327-.07-1.092-.19-1.092-.167zm-6.698.474c-.592.196-1.134.445-1.51.692-.285.19-.648.551-.751.748-.19.363-.078.713.365 1.134.421.397 1.077.759 1.854 1.02.186.06.341.111.348.111.004 0 .043-.1.084-.224.124-.372.33-.914.501-1.314l.162-.382-.08-.176a15.396 15.396 0 0 1-.573-1.488c-.046-.153-.076-.21-.101-.208-.02 0-.155.039-.3.087zm8.572.189c-.146.419-.297.81-.475 1.223l-.16.373.144.315c.157.346.388.926.525 1.313.05.148.099.247.117.247.05 0 .441-.135.763-.268.883-.357 1.525-.834 1.779-1.321a.684.684 0 0 0 0-.583c-.185-.375-.633-.748-1.298-1.077a7.896 7.896 0 0 0-1.265-.491c-.022-.01-.06.064-.13.27zM10.998 8.86c-.078.16-.425.773-.638 1.123-.1.165-.171.302-.158.302.128 0 1.33-.21 1.358-.235.023-.026-.461-1.297-.493-1.297-.01 0-.04.048-.07.108zm-6.12 0c-.082.195-.295.767-.363.986-.076.233-.076.233-.025.245.34.073 1.316.224 1.316.205a26.852 26.852 0 0 1-.686-1.173 4.935 4.935 0 0 0-.196-.347.348.348 0 0 0-.046.085zm6.552 1.873c-.306.069-.894.158-1.351.21l-.359.04-.199.274c-.281.386-.612.807-.852 1.083l-.206.238.176.158c1.067.98 2.15 1.465 2.727 1.223.27-.115.491-.576.567-1.182.048-.393.016-1.104-.069-1.555-.08-.411-.119-.548-.155-.546-.02.002-.146.027-.279.057zm-7.23.254c-.254 1.211-.209 2.19.12 2.7.156.242.32.324.65.324.649 0 1.557-.484 2.478-1.321l.12-.11-.225-.254a16.97 16.97 0 0 1-.86-1.063c-.224-.301-.17-.274-.608-.315a17.02 17.02 0 0 1-1.335-.197l-.277-.055c-.002 0-.032.13-.064.29zm2.932.071c0 .025.517.651.782.95l.1.113.213-.25c.204-.24.624-.77.638-.806.002-.01-.386-.016-.864-.016s-.869.004-.869.009z"/></svg>