<svg viewBox="0 0 266 262" xmlns="http://www.w3.org/2000/svg"><g fill="#ffffff" fill-rule="evenodd"><circle cx="132.92" cy="130.91" r="22.9"/><path d="M188.634,221.066 C197.096,215.779 204.76,209.331 211.401,201.939 L235.343,215.765 L257.143,178.005 L233.249,164.209 C236.287,154.934 238.074,145.096 238.409,134.898 L265.592,130.105 L258.018,87.167 L230.84,91.96 C227.084,82.651 222.045,73.995 215.934,66.216 L233.7,45.046 L200.3,17.022 L182.549,38.174 C173.879,33.528 164.49,30.055 154.595,27.971 L154.595,0.385 L110.995,0.385 L110.995,27.971 C101.099,30.055 91.71,33.528 83.039,38.174 L65.289,17.022 L31.889,45.047 L49.653,66.217 C43.543,73.996 38.504,82.653 34.748,91.961 L7.57,87.168 L0,130.106 L27.179,134.899 C27.514,145.098 29.302,154.934 32.34,164.212 L8.444,178.007 L30.245,215.766 L54.188,201.944 C60.827,209.333 68.491,215.782 76.954,221.069 L67.503,247.032 L108.475,261.942 L117.913,236.014 C122.777,236.702 127.744,237.067 132.795,237.067 C137.846,237.067 142.814,236.704 147.678,236.014 L157.115,261.944 L198.085,247.03 L188.634,221.066 L188.634,221.066 Z M132.793,187.065 C102.091,187.065 77.113,162.088 77.113,131.385 C77.113,100.684 102.091,75.705 132.793,75.705 C163.495,75.705 188.473,100.684 188.473,131.385 C188.473,162.088 163.496,187.065 132.793,187.065 L132.793,187.065 Z"/></g></svg>