<?xml version="1.0" encoding="UTF-8"?>
<svg width="58px" height="58px" viewBox="0 0 58 58" version="1.1" xmlns="http://www.w3.org/2000/svg" xmlns:xlink="http://www.w3.org/1999/xlink" xmlns:sketch="http://www.bohemiancoding.com/sketch/ns">
    <!-- Generator: Sketch 3.3.3 (12081) - http://www.bohemiancoding.com/sketch -->
    <title>Untitled 7</title>
    <desc>Created with Sketch.</desc>
    <defs></defs>
    <g id="Page-1" stroke="none" stroke-width="1" fill="none" fill-rule="evenodd" sketch:type="MSPage">
        <g id="recycling-symbol" sketch:type="MSLayerGroup" fill="#933EC5">
            <path d="M22.5131579,19.8543158 C19.0301053,17.8578947 15.5501053,15.8584211 12.0701053,13.862 C13.9291579,10.2324211 16.1972632,6.59368421 19.9031579,2.958 C20.3610526,2.46957895 20.9624211,2.14905263 21.7042105,1.99947368 L22.4917895,1.99947368 L23.0473684,2.02389474 C24.8758947,2.32915789 26.6464211,4.74378947 27.5652632,6.10831579 C28.2887368,7.34463158 28.9816842,8.59621053 29.6441053,9.86 L22.5131579,19.8543158 L22.5131579,19.8543158 Z M28.4566316,5.54968421 C30.1294737,8.42221053 31.7076842,11.3985263 33.0722105,14.5763158 L27.5377895,17.7602105 L43.5885263,19.2987368 L50.344,4.63084211 L44.7576842,7.84526316 C43.2374737,4.756 41.2990526,2.18568421 38.3593684,0.87 C33.0905263,0.894421053 27.8186316,0.918842105 22.5436842,0.946315789 C24.6316842,0.866947368 26.5762105,2.75652632 28.4566316,5.54968421 L28.4566316,5.54968421 Z M40.7221053,26.4754737 L40.7862105,26.3869474 L40.7862105,26.6067368 L44.9103158,35.3830526 C46.5770526,35.4441053 48.2468421,35.4502105 49.9166316,35.4318947 C51.6444211,35.2884211 54.8588421,34.8946316 55.8570526,33.2431579 C55.8967368,33.1851579 55.9211579,33.1302105 55.9547368,33.0722105 L56.3607368,32.3426316 C56.3607368,32.016 56.3149474,31.6832632 56.2172632,31.3718947 C54.8649474,26.3625263 52.8074737,22.6077895 50.5546316,19.2041053 C47.1082105,21.2615789 43.6587368,23.3129474 40.2123158,25.3734737 L40.7221053,26.4754737 L40.7221053,26.4754737 Z M49.9593684,36.4789474 C46.6350526,36.5369474 43.2741053,36.4392632 39.8337895,36.0790526 L39.7696842,29.6898947 L30.5690526,42.9261053 L40.0444211,56.0066316 L39.9803158,49.5655789 C43.4145263,49.7578947 46.6045263,49.3213684 49.1992632,47.4134737 C51.7604211,42.8009474 54.3215789,38.1914737 56.8857895,33.5881053 C55.9181053,35.4441053 53.3142105,36.2072632 49.9593684,36.4789474 L49.9593684,36.4789474 Z M16.3743158,37.3977895 C15.6538947,38.7867368 14.9731579,40.194 14.3168421,41.6287368 C13.6941053,43.2527368 12.6653684,46.3206316 13.7246316,47.9324211 C13.7612632,47.9904211 13.7978947,48.0392632 13.8375789,48.0942105 L14.3382105,48.7932632 C14.7594737,49.0924211 15.2143158,49.2633684 15.6935789,49.3305263 C20.8006316,50.2798947 25.0743158,50.0326316 29.116,49.4678947 C28.7466316,45.472 28.3772632,41.4730526 28.0048421,37.4771579 L16.3743158,37.3977895 L16.3743158,37.3977895 Z M13.3491579,41.2135789 C14.7350526,38.2006316 16.2613684,35.1968421 18.0685263,32.2449474 L23.8624211,34.9434737 L15.8828421,20.9318947 L0,23.8441053 L5.84273684,26.5578947 C4.18821053,29.5861053 3.20831579,32.6448421 3.81578947,35.8012632 C6.86842105,40.1054737 9.92105263,44.4035789 12.9797895,48.7016842 C11.716,47.038 12.1464211,44.3608421 13.3491579,41.2135789 L13.3491579,41.2135789 Z" id="Shape" sketch:type="MSShapeGroup"></path>
        </g>
    </g>
</svg>