<svg xmlns="http://www.w3.org/2000/svg" width="35" height="45" viewBox="0 0 35 45">
  <g fill="none">
    <path fill="#E9E9E0" d="M24.387,0.2 L1.172,0.2 C0.523,0.2 0,0.723 0,1.739 L0,44.2 C0,44.477 0.523,45.001 1.172,45.001 L33.23,45.001 C33.875,45.001 34.398,44.477 34.398,44.2 L34.398,10.583 C34.398,10.024 34.324,9.845 34.195,9.716 L24.887,0.407 C24.7543809,0.274420966 24.5745234,0.199959947 24.387,0.2 L24.387,0.2 Z"/>
    <polygon fill="#D9D7CA" points="24.801 .321 24.801 9.802 34.277 9.802"/>
    <path fill="#8697CB" d="M9.602,10.598 L4.801,10.598 C4.36000063,10.598 4.0025,10.2404994 4.0025,9.7995 C4.0025,9.35850063 4.36000063,9.001 4.801,9.001 L9.602,9.001 C10.0429994,9.001 10.4005,9.35850063 10.4005,9.7995 C10.4005,10.2404994 10.0429994,10.598 9.602,10.598 L9.602,10.598 Z M12,14.598 L4.801,14.598 C4.36000063,14.598 4.0025,14.2404994 4.0025,13.7995 C4.0025,13.3585006 4.36000063,13.001 4.801,13.001 L12,13.001 C12.4300069,13.0162197 12.7707378,13.3692238 12.7707378,13.7995 C12.7707378,14.2297762 12.4300069,14.5827803 12,14.598 L12,14.598 Z M15.199,14.598 C14.9879929,14.5958839 14.7856729,14.513669 14.633,14.368 C14.4859294,14.2158266 14.4019624,14.0135911 14.398,13.802 C14.398,13.591 14.488,13.384 14.633,13.231 C14.93,12.934 15.473,12.934 15.77,13.231 C15.91,13.384 16,13.591 16,13.802 C16,14.009 15.91,14.216 15.77,14.368 C15.6153023,14.5136503 15.4114626,14.5957574 15.199,14.598 L15.199,14.598 Z M24.801,14.598 L18.398,14.598 C17.9570006,14.598 17.5995,14.2404994 17.5995,13.7995 C17.5995,13.3585006 17.9570006,13.001 18.398,13.001 L24.801,13.001 C25.2310069,13.0162197 25.5717378,13.3692238 25.5717378,13.7995 C25.5717378,14.2297762 25.2310069,14.5827803 24.801,14.598 L24.801,14.598 Z M4.801,26.598 C4.58853742,26.5957574 4.38469767,26.5136503 4.23,26.368 C4.08624275,26.2140982 4.00434322,26.0125541 4,25.802 C4,25.591 4.09,25.384 4.23,25.231 C4.527,24.934 5.07,24.934 5.367,25.231 C5.51602684,25.3839132 5.6002205,25.5884859 5.602,25.802 C5.602,26.009 5.512,26.216 5.367,26.368 C5.21432712,26.513669 5.01200711,26.5958839 4.801,26.598 L4.801,26.598 Z M14.398,26.598 L8,26.598 C7.70798411,26.6083356 7.43361629,26.4584433 7.28454289,26.2071323 C7.13546948,25.9558213 7.13546948,25.6431787 7.28454289,25.3918677 C7.43361629,25.1405567 7.70798411,24.9906644 8,25.001 L14.398,25.001 C14.6832766,25.001 14.946883,25.1531932 15.0895213,25.40025 C15.2321596,25.6473068 15.2321596,25.9516932 15.0895213,26.19875 C14.946883,26.4458068 14.6832766,26.598 14.398,26.598 L14.398,26.598 Z M29.602,14.598 L28,14.598 C27.7079841,14.6083356 27.4336163,14.4584433 27.2845429,14.2071323 C27.1354695,13.9558213 27.1354695,13.6431787 27.2845429,13.3918677 C27.4336163,13.1405567 27.7079841,12.9906644 28,13.001 L29.602,13.001 C30.0429994,13.001 30.4005,13.3585006 30.4005,13.7995 C30.4005,14.2404994 30.0429994,14.598 29.602,14.598 L29.602,14.598 Z M22.398,18.598 L4.801,18.598 C4.36000063,18.598 4.0025,18.2404994 4.0025,17.7995 C4.0025,17.3585006 4.36000063,17.001 4.801,17.001 L22.398,17.001 C22.8389994,17.001 23.1965,17.3585006 23.1965,17.7995 C23.1965,18.2404994 22.8389994,18.598 22.398,18.598 L22.398,18.598 Z M29.602,18.598 L24.801,18.598 C24.3600006,18.598 24.0025,18.2404994 24.0025,17.7995 C24.0025,17.3585006 24.3600006,17.001 24.801,17.001 L29.602,17.001 C30.0429994,17.001 30.4005,17.3585006 30.4005,17.7995 C30.4005,18.2404994 30.0429994,18.598 29.602,18.598 L29.602,18.598 Z M8,22.598 L4.801,22.598 C4.36000063,22.598 4.0025,22.2404994 4.0025,21.7995 C4.0025,21.3585006 4.36000063,21.001 4.801,21.001 L8,21.001 C8.4300069,21.0162197 8.77073783,21.3692238 8.77073783,21.7995 C8.77073783,22.2297762 8.4300069,22.5827803 8,22.598 L8,22.598 Z M19.199,22.598 L11.199,22.598 C10.9069841,22.6083356 10.6326163,22.4584433 10.4835429,22.2071323 C10.3344695,21.9558213 10.3344695,21.6431787 10.4835429,21.3918677 C10.6326163,21.1405567 10.9069841,20.9906644 11.199,21.001 L19.199,21.001 C19.6399994,21.001 19.9975,21.3585006 19.9975,21.7995 C19.9975,22.2404994 19.6399994,22.598 19.199,22.598 L19.199,22.598 Z M29.602,22.598 L22.398,22.598 C21.9570006,22.598 21.5995,22.2404994 21.5995,21.7995 C21.5995,21.3585006 21.9570006,21.001 22.398,21.001 L29.602,21.001 C30.0429994,21.001 30.4005,21.3585006 30.4005,21.7995 C30.4005,22.2404994 30.0429994,22.598 29.602,22.598 L29.602,22.598 Z"/>
    <path fill="#0096E6" d="M33.23,45.001 L1.172,45.001 C0.861003465,45.0015321 0.562591434,44.8782247 0.342683354,44.6583166 C0.122775273,44.4384086 -0.00053207394,44.1399965 0,43.829 L0,31.399 L34.398,31.399 L34.398,43.829 C34.3985309,44.1393034 34.2757722,44.4371085 34.0567296,44.6569012 C33.8376871,44.876694 33.5403034,45.00047 33.23,45.001 L33.23,45.001 Z"/>
    <path fill="#FFFFFF" d="M13.602,38.345 C13.602,39.009 13.527,39.575 13.387,40.048 C13.242,40.516 13.062,40.911 12.844,41.227 C12.6474244,41.5215752 12.3966388,41.7760937 12.105,41.977 C11.6600426,42.2857731 11.1491575,42.4864291 10.613,42.563 C10.457711,42.5827593 10.3015007,42.5944417 10.145,42.598 L7.094,42.598 L7.094,34.54 L9.52,34.54 C10.199,34.54 10.793,34.645 11.309,34.86 C11.82,35.075 12.25,35.364 12.59,35.72 C12.926,36.075 13.18,36.485 13.348,36.938 C13.516,37.395 13.602,37.864 13.602,38.345 L13.602,38.345 Z M9.707,41.638 C10.598,41.638 11.238,41.352 11.633,40.786 C12.023,40.216 12.223,39.391 12.223,38.313 C12.223,37.977 12.18,37.645 12.102,37.317 C12.0202896,36.9874593 11.8608424,36.6822807 11.637,36.427 C11.406,36.161 11.094,35.946 10.703,35.782 C10.309,35.618 9.797,35.536 9.172,35.536 L8.406,35.536 L8.406,41.638 L9.707,41.638 L9.707,41.638 Z M21.578,38.532 C21.578,39.208 21.496,39.805 21.324,40.325 C21.152,40.841 20.914,41.274 20.613,41.614 C20.3215052,41.9491 19.9586111,42.2146072 19.551,42.391 C19.1311924,42.5691572 18.6790149,42.6583669 18.223,42.653 C17.742,42.653 17.297,42.567 16.895,42.391 C16.4870966,42.2146175 16.1238742,41.94912 15.832,41.614 C15.5113693,41.2360765 15.2696214,40.7978022 15.121,40.325 C14.949,39.805 14.863,39.208 14.863,38.532 C14.863,37.852 14.949,37.259 15.121,36.743 C15.293,36.227 15.531,35.802 15.832,35.458 C16.1247915,35.122884 16.4876948,34.8562542 16.895,34.677 C17.3135015,34.493814 17.7661922,34.401776 18.223,34.407 C18.703,34.407 19.145,34.497 19.551,34.677 C19.957,34.856 20.309,35.114 20.613,35.458 C20.914,35.802 21.152,36.231 21.324,36.743 C21.492,37.259 21.578,37.852 21.578,38.532 L21.578,38.532 Z M18.188,41.583 C18.457,41.583 18.715,41.532 18.961,41.427 C19.203,41.321 19.422,41.145 19.617,40.907 C19.809,40.665 19.961,40.348 20.07,39.958 C20.18,39.567 20.238,39.095 20.246,38.532 C20.238,37.985 20.18,37.52 20.074,37.138 C19.969,36.755 19.824,36.438 19.637,36.192 C19.3198253,35.7447859 18.8021818,35.483157 18.254,35.493 C17.984,35.493 17.727,35.54 17.48,35.645 C17.238,35.747 17.02,35.919 16.828,36.165 C16.633,36.407 16.48,36.723 16.371,37.11 C16.266,37.497 16.203,37.97 16.199,38.532 C16.1950924,39.003261 16.2515516,39.4730823 16.367,39.93 C16.473,40.317 16.617,40.634 16.805,40.876 C16.992,41.122 17.203,41.302 17.438,41.415 C17.676,41.528 17.926,41.583 18.188,41.583 L18.188,41.583 Z M28.887,41.778 C28.5959552,42.0647655 28.2486573,42.2881258 27.867,42.434 C27.4771704,42.5835823 27.0625141,42.6578947 26.645,42.653 C26.1886224,42.6587967 25.7360309,42.5695725 25.316,42.391 C24.9085243,42.2143709 24.5456791,41.9488994 24.254,41.614 C23.9333693,41.2360765 23.6916214,40.7978022 23.543,40.325 C23.371,39.805 23.285,39.208 23.285,38.532 C23.285,37.852 23.371,37.259 23.543,36.743 C23.715,36.227 23.953,35.802 24.254,35.458 C24.5473197,35.1221628 24.9113675,34.8554448 25.32,34.677 C25.73,34.497 26.172,34.407 26.645,34.407 C27.082,34.407 27.488,34.481 27.867,34.626 C28.2471151,34.7749074 28.593835,34.9978959 28.887,35.282 L27.977,36.091 C27.8140392,35.8928278 27.606339,35.7361958 27.371,35.634 C27.1515039,35.539224 26.915082,35.4898985 26.676,35.489 C26.406,35.489 26.148,35.54 25.906,35.641 C25.647051,35.7563556 25.4214133,35.9352148 25.25,36.161 C25.03625,36.4433666 24.8821295,36.7662371 24.797,37.11 C24.688,37.497 24.629,37.97 24.621,38.532 C24.629,39.079 24.684,39.544 24.789,39.93 C24.895,40.317 25.039,40.634 25.227,40.876 C25.414,41.122 25.625,41.298 25.863,41.411 C26.098,41.528 26.348,41.583 26.609,41.583 C26.875,41.583 27.121,41.536 27.348,41.438 C27.578,41.345 27.789,41.192 27.977,40.981 L28.887,41.778 L28.887,41.778 Z"/>
  </g>
</svg>
