<svg version="1.1" xmlns="http://www.w3.org/2000/svg" viewBox="0 0 96.55 96.55">
	<path d="M47.141,40.174h26.76c0.654,0,1.184-0.527,1.184-1.18V24.928c0-0.652-0.528-1.18-1.184-1.18h-26.76
		c-0.652,0-1.182,0.527-1.182,1.18v14.067C45.959,39.647,46.488,40.174,47.141,40.174z"/>
	<path d="M47.141,16.549h15.122c0.652,0,1.182-0.529,1.182-1.182V1.303c0-0.654-0.528-1.182-1.182-1.182H47.141
		c-0.652,0-1.182,0.527-1.182,1.182v14.064C45.959,16.02,46.488,16.549,47.141,16.549z"/>
	<path d="M47.141,68.299h36.98c0.651,0,1.181-0.527,1.181-1.18V53.055c0-0.652-0.528-1.182-1.181-1.182h-36.98
		c-0.652,0-1.182,0.529-1.182,1.182v14.064C45.959,67.771,46.488,68.299,47.141,68.299z"/>
	<path d="M94.338,80.003H47.141c-0.652,0-1.182,0.526-1.182,1.183v14.062c0,0.652,0.529,1.182,1.182,1.182h47.198
		c0.652,0,1.181-0.529,1.181-1.182V81.184C95.519,80.529,94.992,80.003,94.338,80.003z"/>
	<path d="M39.183,65.595h-8.011V2c0-1.105-0.896-2-2-2h-16.13c-1.104,0-2,0.895-2,2v63.595h-8.01c-0.771,0-1.472,0.443-1.804,1.138
		C0.895,67.427,0.99,68.25,1.472,68.85l18.076,26.954c0.38,0.474,0.953,0.746,1.559,0.746s1.178-0.272,1.558-0.746L40.741,68.85
		c0.482-0.601,0.578-1.423,0.245-2.117C40.654,66.039,39.954,65.595,39.183,65.595z"/>
</svg>
