<svg xmlns="http://www.w3.org/2000/svg" width="95" height="97" viewBox="0 0 95 97">
  <g fill="#000000" transform="matrix(1 0 0 -1 0 97)">
    <path d="M46.141 40.174L72.901 40.174C73.555 40.174 74.085 39.647 74.085 38.994L74.085 24.928C74.085 24.276 73.557 23.748 72.901 23.748L46.141 23.748C45.489 23.748 44.959 24.275 44.959 24.928L44.959 38.995C44.959 39.647 45.488 40.174 46.141 40.174zM46.141 16.549L61.263 16.549C61.915 16.549 62.445 16.02 62.445 15.367L62.445 1.303C62.445.649 61.917.121 61.263.121L46.141.121C45.489.121 44.959.648 44.959 1.303L44.959 15.367C44.959 16.02 45.488 16.549 46.141 16.549zM46.141 68.299L83.121 68.299C83.772 68.299 84.302 67.772 84.302 67.119L84.302 53.055C84.302 52.403 83.774 51.873 83.121 51.873L46.141 51.873C45.489 51.873 44.959 52.402 44.959 53.055L44.959 67.119C44.959 67.771 45.488 68.299 46.141 68.299zM93.338 80.003L46.141 80.003C45.489 80.003 44.959 80.529 44.959 81.186L44.959 95.248C44.959 95.9 45.488 96.43 46.141 96.43L93.339 96.43C93.991 96.43 94.52 95.901 94.52 95.248L94.52 81.184C94.519 80.529 93.992 80.003 93.338 80.003zM38.183 65.595L30.172 65.595 30.172 2C30.172.895 29.276 0 28.172 0L12.042 0C10.938 0 10.042.895 10.042 2L10.042 65.595 2.032 65.595C1.261 65.595.56 66.038.228 66.733-.105 67.427-.01 68.25.472 68.85L18.548 95.804C18.928 96.278 19.501 96.55 20.107 96.55 20.713 96.55 21.285 96.278 21.665 95.804L39.741 68.85C40.223 68.249 40.319 67.427 39.986 66.733 39.654 66.039 38.954 65.595 38.183 65.595z"/>
  </g>
</svg>
