<?xml version="1.0" encoding="UTF-8" standalone="no"?>
<svg width="398px" height="358px" viewBox="0 0 398 358" version="1.1" xmlns="http://www.w3.org/2000/svg" xmlns:xlink="http://www.w3.org/1999/xlink">
    <!-- Generator: Sketch 48.2 (47327) - http://www.bohemiancoding.com/sketch -->
    <title>folder</title>
    <desc>Created with Sketch.</desc>
    <defs></defs>
    <g id="Page-1" stroke="none" stroke-width="1" fill="none" fill-rule="evenodd">
        <g id="folder" fill="#000000" fill-rule="nonzero">
            <path d="M374,61.475 L374,10.815 C374,5.292 369.522,0.815 364,0.815 L10,0.815 C4.478,0.815 0,5.292 0,10.815 L0,295.975 C0,301.498 4.478,305.975 10,305.975 L50,305.975 L50,329.185 C50,344.624 62.561,357.185 78,357.185 L370,357.185 C385.439,357.185 398,344.624 398,329.185 L398,89.185 C398,75.104 387.551,63.423 374,61.475 Z M20,285.975 L20,20.815 L354,20.815 L354,61.185 L258,61.185 C242.561,61.185 230,73.746 230,89.185 C230,93.596 226.411,97.185 222,97.185 L78,97.185 C62.561,97.185 50,109.746 50,125.185 L50,285.975 L20,285.975 Z M378,329.185 C378,333.596 374.411,337.185 370,337.185 L78,337.185 C73.589,337.185 70,333.596 70,329.185 L70,125.185 C70,120.774 73.589,117.185 78,117.185 L222,117.185 C237.439,117.185 250,104.624 250,89.185 C250,84.774 253.589,81.185 258,81.185 L370,81.185 C374.411,81.185 378,84.774 378,89.185 L378,329.185 Z" id="Shape"></path>
            <path d="M198,147.185 L106,147.185 C100.478,147.185 96,151.662 96,157.185 C96,162.708 100.478,167.185 106,167.185 L198,167.185 C203.522,167.185 208,162.708 208,157.185 C208,151.662 203.522,147.185 198,147.185 Z" id="Shape"></path>
            <path d="M198,181.185 L106,181.185 C100.478,181.185 96,185.662 96,191.185 C96,196.708 100.478,201.185 106,201.185 L198,201.185 C203.522,201.185 208,196.708 208,191.185 C208,185.662 203.522,181.185 198,181.185 Z" id="Shape"></path>
        </g>
    </g>
</svg>