<?xml version="1.0" encoding="iso-8859-1"?>
<!-- Generator: Adobe Illustrator 16.0.0, SVG Export Plug-In . SVG Version: 6.00 Build 0)  -->
<!DOCTYPE svg PUBLIC "-//W3C//DTD SVG 1.1//EN" "http://www.w3.org/Graphics/SVG/1.1/DTD/svg11.dtd">
<svg version="1.1" id="Capa_1" xmlns="http://www.w3.org/2000/svg" xmlns:xlink="http://www.w3.org/1999/xlink" x="0px" y="0px"
	 width="417.148px" height="417.148px" viewBox="0 0 417.148 417.148" style="enable-background:new 0 0 417.148 417.148;"
	 xml:space="preserve">
<g>
	<path d="M406.783,341.692H365.99V65.903l42.898-42.9c4.049-4.049,4.049-10.607,0-14.656c-4.043-4.049-10.613-4.049-14.657,0
		l-42.899,42.898H81.005h-5.461V10.411c0-5.725-4.642-10.365-10.365-10.365c-5.725,0-10.365,4.641-10.365,10.365v40.834H10.366
		C4.641,51.245,0,55.888,0,61.61c0,5.725,4.642,10.367,10.366,10.367h44.448v9.068v271.013c0,5.725,4.641,10.363,10.365,10.363
		h270.97h9.069v44.316c0,5.725,4.642,10.365,10.365,10.365c5.725,0,10.365-4.641,10.365-10.365v-44.316h40.834
		c5.725,0,10.365-4.641,10.365-10.363C417.148,346.333,412.508,341.692,406.783,341.692z M81.005,71.977h249.597L75.544,327.034
		V81.046v-9.068L81.005,71.977L81.005,71.977z M336.148,341.692H90.201l255.058-255.06v249.062c-0.005,0.131-0.04,0.264-0.04,0.398
		v5.6H336.148z"/>
</g>
<g>
</g>
<g>
</g>
<g>
</g>
<g>
</g>
<g>
</g>
<g>
</g>
<g>
</g>
<g>
</g>
<g>
</g>
<g>
</g>
<g>
</g>
<g>
</g>
<g>
</g>
<g>
</g>
<g>
</g>
</svg>
