<?xml version="1.0" encoding="iso-8859-1"?>
<!-- Generator: Adobe Illustrator 16.0.0, SVG Export Plug-In . SVG Version: 6.00 Build 0)  -->
<!DOCTYPE svg PUBLIC "-//W3C//DTD SVG 1.1//EN" "http://www.w3.org/Graphics/SVG/1.1/DTD/svg11.dtd">
<svg version="1.1" id="Capa_1" xmlns="http://www.w3.org/2000/svg" xmlns:xlink="http://www.w3.org/1999/xlink" x="0px" y="0px"
	 width="73.475px" height="73.475px" viewBox="0 0 73.475 73.475" style="enable-background:new 0 0 73.475 73.475;"
	 xml:space="preserve">
<g>
	<g>
		<path d="M57.122,2.128H19.938c-3.138,0-5.602,2.464-5.602,5.601v4.479H5.6c-3.136,0-5.6,2.464-5.6,5.601v47.936
			c0,3.137,2.464,5.602,5.6,5.602h47.938c3.135,0,5.601-2.465,5.601-5.602v-4.479h8.735c3.135,0,5.601-2.466,5.601-5.603v-38.08
			L57.122,2.128z M23.969,54.544c-0.446,0.449-1.12,0.672-1.566,0.672c-0.448,0-1.12-0.223-1.568-0.672
			c-0.896-0.896-0.896-2.24,0-3.135l15.008-15.01h-8.96c-1.344,0-2.24-1.118-2.24-2.238c0-1.345,1.12-2.24,2.24-2.24h14.336
			c0.225,0,0.672,0,0.896,0.225c0.447,0.225,0.895,0.672,1.119,1.12c0.225,0.225,0.225,0.672,0.225,0.896v14.335
			c0,1.344-1.121,2.24-2.24,2.24c-1.121,0-2.238-1.119-2.238-2.24v-8.959L23.969,54.544z M58.018,4.145l13.217,12.544h-8.512
			c-2.466,0-4.705-2.017-4.705-4.703V4.145z M55.555,65.745c0,1.119-0.896,1.791-1.794,1.791H5.6c-1.118,0-1.792-0.896-1.792-1.791
			V17.809c0-1.12,0.896-1.792,1.792-1.792h8.736v39.648c0,3.135,2.464,5.6,5.602,5.6h35.617V65.745L55.555,65.745z"/>
	</g>
</g>
<g>
</g>
<g>
</g>
<g>
</g>
<g>
</g>
<g>
</g>
<g>
</g>
<g>
</g>
<g>
</g>
<g>
</g>
<g>
</g>
<g>
</g>
<g>
</g>
<g>
</g>
<g>
</g>
<g>
</g>
</svg>
