<?xml version="1.0" encoding="iso-8859-1"?>
<!-- Generator: Adobe Illustrator 18.1.1, SVG Export Plug-In . SVG Version: 6.00 Build 0)  -->
<svg version="1.1" id="Capa_1" xmlns="http://www.w3.org/2000/svg" xmlns:xlink="http://www.w3.org/1999/xlink" x="0px" y="0px"
	 viewBox="0 0 33.899 33.899" style="enable-background:new 0 0 33.899 33.899;" xml:space="preserve">
<g>
	<g>
		<path style="fill:#010002;" d="M27.218,5.06H6.589c-0.965,0-1.75,0.785-1.75,1.75v20.629c0,0.965,0.785,1.75,1.75,1.75h20.629
			c0.965,0,1.75-0.785,1.75-1.75V6.81C28.968,5.845,28.183,5.06,27.218,5.06z M27.468,27.439c0,0.138-0.112,0.25-0.25,0.25H6.589
			c-0.138,0-0.25-0.112-0.25-0.25V6.81c0-0.138,0.112-0.25,0.25-0.25h20.629c0.138,0,0.25,0.112,0.25,0.25V27.439z"/>
		<path style="fill:#010002;" d="M28.218,0c-0.414,0-0.75,0.337-0.75,0.75v2.604c0,0.413,0.336,0.75,0.75,0.75
			c0.412,0,0.75-0.337,0.75-0.75V0.75C28.968,0.337,28.632,0,28.218,0z"/>
		<path style="fill:#010002;" d="M5.589,4.105c0.413,0,0.75-0.337,0.75-0.75V0.751c0-0.413-0.337-0.75-0.75-0.75
			s-0.75,0.337-0.75,0.75v2.604C4.839,3.768,5.176,4.105,5.589,4.105z"/>
		<path style="fill:#010002;" d="M28.218,29.795c-0.414,0-0.75,0.337-0.75,0.75v2.604c0,0.413,0.336,0.75,0.75,0.75
			c0.412,0,0.75-0.337,0.75-0.75v-2.604C28.968,30.132,28.632,29.795,28.218,29.795z"/>
		<path style="fill:#010002;" d="M5.589,29.795c-0.413,0-0.75,0.337-0.75,0.75v2.604c0,0.413,0.337,0.75,0.75,0.75
			s0.75-0.337,0.75-0.75v-2.604C6.339,30.132,6.004,29.795,5.589,29.795z"/>
		<path style="fill:#010002;" d="M3.522,27.689H0.918c-0.413,0-0.75,0.337-0.75,0.75s0.337,0.75,0.75,0.75h2.604
			c0.413,0,0.75-0.337,0.75-0.75S3.935,27.689,3.522,27.689z"/>
		<path style="fill:#010002;" d="M3.522,5.06H0.918c-0.413,0-0.75,0.337-0.75,0.75s0.337,0.75,0.75,0.75h2.604
			c0.413,0,0.75-0.337,0.75-0.75S3.935,5.06,3.522,5.06z"/>
		<path style="fill:#010002;" d="M32.98,27.689h-2.604c-0.414,0-0.75,0.337-0.75,0.75s0.336,0.75,0.75,0.75h2.604
			c0.412,0,0.75-0.337,0.75-0.75S33.392,27.689,32.98,27.689z"/>
		<path style="fill:#010002;" d="M30.377,6.56h2.604c0.412,0,0.75-0.337,0.75-0.75s-0.338-0.75-0.75-0.75h-2.604
			c-0.414,0-0.75,0.337-0.75,0.75S29.963,6.56,30.377,6.56z"/>
	</g>
</g>
<g>
</g>
<g>
</g>
<g>
</g>
<g>
</g>
<g>
</g>
<g>
</g>
<g>
</g>
<g>
</g>
<g>
</g>
<g>
</g>
<g>
</g>
<g>
</g>
<g>
</g>
<g>
</g>
<g>
</g>
</svg>
