<svg viewBox="0 0 266 262" version="1.1" xmlns="http://www.w3.org/2000/svg">
    <circle cx="132.919" cy="130.914" r="22.897"></circle>
    <path d="M188.634 221.066c8.462-5.287 16.126-11.735 22.767-19.127l23.948 13.82 21.8-37.76-23.894-13.796c3.038-9.276 4.825-19.114 5.16-29.312l27.183-4.793-7.574-42.938-27.18 4.793c-3.754-9.31-8.793-17.965-14.904-25.744l17.765-21.17-33.4-28.023-17.75 21.15c-8.67-4.645-18.06-8.12-27.954-10.202V.385H111V27.97c-9.9 2.086-19.29 5.56-27.96 10.205L65.29 17.022l-33.4 28.025 17.763 21.17c-6.11 7.78-11.15 16.436-14.905 25.744L7.57 87.17 0 130.106l27.18 4.793c.334 10.193 2.122 20.03 5.16 29.31L8.444 178.004l21.8 37.76 23.944-13.823c6.64 7.39 14.303 13.838 22.766 19.125l-9.45 25.96 40.97 14.91 9.44-25.928c4.863.687 9.83 1.052 14.88 1.052 5.052 0 10.02-.363 14.884-1.053l9.437 25.93 40.97-14.915-9.45-25.966zm-55.84-34c-30.703 0-55.68-24.978-55.68-55.68 0-30.702 24.977-55.68 55.68-55.68 30.7 0 55.68 24.978 55.68 55.68 0 30.702-24.978 55.68-55.68 55.68z"></path>
</svg>
