<?xml version="1.0" encoding="UTF-8" standalone="no"?>
<svg width="32px" height="24px" viewBox="0 0 32 24" version="1.1" xmlns="http://www.w3.org/2000/svg" xmlns:xlink="http://www.w3.org/1999/xlink">
    <!-- Generator: Sketch 48.2 (47327) - http://www.bohemiancoding.com/sketch -->
    <title>cloud-upload</title>
    <desc>Created with Sketch.</desc>
    <defs></defs>
    <g id="Page-1" stroke="none" stroke-width="1" fill="none" fill-rule="evenodd">
        <g id="cloud-upload" fill="#030104" fill-rule="nonzero">
            <path d="M27.586,8.712 C26.66,6.251 24.284,4.5 21.5,4.5 C20.859,4.5 20.24,4.593 19.654,4.766 C18.068,2.205 15.233,0.5 12,0.5 C7.096,0.5 3.106,4.424 3.002,9.303 C1.207,10.342 0,12.283 0,14.5 C0,17.812 2.688,20.5 6,20.5 L12,20.5 L12,18.5 L5.997,18.5 C3.794,18.5 2,16.709 2,14.5 C2,12.607 3.317,11.018 5.087,10.604 C5.029,10.245 5,9.876 5,9.5 C5,5.634 8.134,2.5 12,2.5 C15.162,2.5 17.834,4.597 18.702,7.475 C19.471,6.864 20.441,6.5 21.5,6.5 C23.816,6.5 25.725,8.25 25.973,10.5 L26.003,10.5 C28.206,10.5 30,12.291 30,14.5 C30,16.705 28.211,18.5 26.003,18.5 L20,18.5 L20,20.5 L26,20.5 C29.312,20.5 32,17.807 32,14.5 C32,11.735 30.13,9.407 27.586,8.712 Z" id="Shape"></path>
            <polygon id="Shape" points="16 9.5 11 15.5 14 15.5 14 23.5 18 23.5 18 15.5 21 15.5"></polygon>
        </g>
    </g>
</svg>