<svg viewBox="0 0 512 408" version="1.1" xmlns="http://www.w3.org/2000/svg">
    <path d="M476 0L36 0C16.116 0 0 16.116 0 36L0 84C0 103.884 16.116 120 36 120L476 120C495.884 120 512 103.884 512 84L512 36C512 16.116 495.884 0 476 0zM55.752 83.628C42.652 83.628 32 72.976 32 59.88 32 46.788 42.652 36.128 55.752 36.128 68.852 36.128 79.504 46.788 79.504 59.88 79.5 72.976 68.848 83.628 55.752 83.628zM356 64C356 75.044 347.048 84 336 84L120 84C108.952 84 100 75.044 100 64L100 56C100 44.956 108.952 36 120 36L336 36C347.048 36 356 44.956 356 56L356 64zM384 76.088C375.064 76.088 367.792 68.816 367.792 59.88 367.792 50.944 375.06 43.672 384 43.672 392.94 43.672 400.208 50.94 400.208 59.88 400.208 68.82 392.936 76.088 384 76.088zM424.004 76.088C415.068 76.088 407.796 68.816 407.796 59.88 407.796 50.944 415.064 43.672 424.004 43.672 432.944 43.672 440.216 50.94 440.216 59.88 440.216 68.82 432.94 76.088 424.004 76.088zM464.056 76.088C455.12 76.088 447.848 68.816 447.848 59.88 447.848 50.944 455.116 43.672 464.056 43.672 472.996 43.672 480.268 50.94 480.268 59.88 480.268 68.82 472.992 76.088 464.056 76.088zM476 144L36 144C16.116 144 0 160.116 0 180L0 228C0 247.884 16.116 264 36 264L476 264C495.884 264 512 247.884 512 228L512 180C512 160.116 495.884 144 476 144zM55.752 227.504C42.652 227.504 32 216.848 32 203.752 32 190.656 42.652 180 55.752 180 68.852 180 79.504 190.656 79.504 203.752 79.504 216.848 68.848 227.504 55.752 227.504zM356 208C356 219.044 347.048 228 336 228L120 228C108.952 228 100 219.044 100 208L100 200C100 188.956 108.952 180 120 180L336 180C347.048 180 356 188.956 356 200L356 208zM384 219.96C375.064 219.96 367.792 212.692 367.792 203.752 367.792 194.812 375.06 187.544 384 187.544 392.94 187.544 400.208 194.816 400.208 203.752 400.208 212.688 392.936 219.96 384 219.96zM424.004 219.96C415.068 219.96 407.796 212.692 407.796 203.752 407.796 194.812 415.064 187.544 424.004 187.544 432.944 187.544 440.216 194.816 440.216 203.752 440.216 212.688 432.94 219.96 424.004 219.96zM464.056 219.96C455.12 219.96 447.848 212.692 447.848 203.752 447.848 194.812 455.116 187.544 464.056 187.544 472.996 187.544 480.268 194.816 480.268 203.752 480.268 212.688 472.992 219.96 464.056 219.96zM476 288L36 288C16.116 288 0 304.116 0 324L0 372C0 391.884 16.116 408 36 408L476 408C495.884 408 512 391.884 512 372L512 324C512 304.116 495.884 288 476 288zM55.752 371.256C42.656 371.256 32 360.6 32 347.504 32 334.408 42.652 323.752 55.752 323.752 68.852 323.752 79.504 334.404 79.504 347.504 79.5 360.6 68.848 371.256 55.752 371.256zM356 352C356 363.044 347.048 372 336 372L120 372C108.952 372 100 363.044 100 352L100 344C100 332.956 108.952 324 120 324L336 324C347.048 324 356 332.956 356 344L356 352zM384 363.712C375.064 363.712 367.792 356.444 367.792 347.504 367.792 338.564 375.06 331.296 384 331.296 392.94 331.296 400.208 338.568 400.208 347.504 400.208 356.44 392.936 363.712 384 363.712zM424.004 363.712C415.068 363.712 407.796 356.444 407.796 347.504 407.796 338.564 415.064 331.296 424.004 331.296 432.944 331.296 440.216 338.568 440.216 347.504 440.216 356.44 432.94 363.712 424.004 363.712zM464.056 363.712C455.12 363.712 447.848 356.444 447.848 347.504 447.848 338.564 455.116 331.296 464.056 331.296 472.996 331.296 480.268 338.568 480.268 347.504 480.268 356.44 472.992 363.712 464.056 363.712z"></path>
</svg>
