<svg viewBox="0 0 432 492" version="1.1" xmlns="http://www.w3.org/2000/svg">
    <path d="M147.128 69.076c0-37.95 30.766-68.716 68.72-68.716 37.95 0 68.72 30.766 68.72 68.716 0 37.95-30.77 68.715-68.72 68.715-37.954.01-68.72-30.76-68.72-68.71zm101.745 115.53c.69-14.962 5.84-28.81 14.127-40.26-5.816-1.218-11.827-1.865-17.995-1.865H186.7c-6.15 0-12.152.65-17.938 1.85 8.82 12.23 14.094 27.17 14.18 43.35 10.72-5.89 23.02-9.25 36.085-9.25 10.598 0 20.687 2.21 29.846 6.19zm11.632 6.17c19.96 12.516 33.957 33.687 36.517 58.273 8.133 3.8 17.17 5.99 26.746 5.99 34.968 0 63.31-28.35 63.31-63.32s-28.342-63.31-63.31-63.31c-34.648 0-62.737 27.83-63.263 62.35zm-41.48 129.635c34.963 0 63.308-28.35 63.308-63.31s-28.345-63.31-63.307-63.31c-34.965 0-63.322 28.35-63.322 63.31s28.357 63.31 63.322 63.31zm26.857 4.31h-53.717c-44.697 0-81.07 36.37-81.07 81.08v65.7l.172 1.03 4.522 1.41c42.65 13.33 79.71 17.78 110.22 17.78 59.57 0 94.11-16.98 96.24-18.07l4.23-2.14h.45V405.8c0-44.7-36.35-81.07-81.06-81.07zm104.756-65.35h-53.314c-.58 21.33-9.683 40.54-24.08 54.35 39.73 11.82 68.8 48.66 68.8 92.18v20.25c52.63-1.94 82.964-16.84 84.962-17.85l4.232-2.15h.45v-65.72c.005-44.69-36.364-81.05-81.05-81.05zm-242.7-4.32c12.385 0 23.902-3.62 33.67-9.77 3.105-20.24 13.957-37.93 29.453-49.97.07-1.19.18-2.36.18-3.56 0-34.97-28.35-63.31-63.3-63.31-34.97 0-63.31 28.34-63.31 63.31 0 34.977 28.34 63.317 63.32 63.317zm56.857 58.67c-14.33-13.74-23.404-32.84-24.072-54.05-1.97-.14-3.928-.29-5.943-.29H81.07C36.366 259.37 0 295.73 0 340.43v65.71l.166 1.02 4.528 1.412c34.214 10.694 64.76 15.61 91.292 17.15v-19.84c.005-43.515 29.068-80.363 68.81-92.17z"></path>
</svg>
