<svg xmlns="http://www.w3.org/2000/svg" width="37" height="36" viewBox="0 0 37 36">
  <path fill="#000000" d="M18.3759578,32.772662 C17.3517241,32.772662 16.5082375,32.0278345 16.3274904,31.0341104 L20.4244253,31.0341104 C20.2436782,32.0278345 19.4001916,32.772662 18.3759578,32.772662 Z M35.2456896,27.930662 L31.9319924,27.930662 L31.9319924,15.5174897 C31.9319924,6.95135173 25.846839,0.000248275861 18.3759578,0.000248275861 C10.9050766,0.000248275861 4.81992338,6.95135173 4.81992338,15.5174897 L4.81992338,27.930662 L1.50622605,27.930662 C0.662739463,27.930662 0,28.6140414 0,29.4823861 C0,30.3519725 0.662739463,31.0341104 1.50622605,31.0341104 L13.2547893,31.0341104 C13.4957854,33.7036966 15.664751,35.8761104 18.3759578,35.8761104 C21.0871648,35.8761104 23.2561303,33.7657655 23.4971265,31.0341104 L35.2456896,31.0341104 C36.0891763,31.0341104 36.7519156,30.3519725 36.7519156,29.4823861 C36.7519156,28.6140414 36.0891763,27.930662 35.2456896,27.930662 L35.2456896,27.930662 Z"/>
</svg>
