<?xml version="1.0" encoding="iso-8859-1"?>
<!-- Generator: Adobe Illustrator 18.0.0, SVG Export Plug-In . SVG Version: 6.00 Build 0)  -->
<!DOCTYPE svg PUBLIC "-//W3C//DTD SVG 1.1//EN" "http://www.w3.org/Graphics/SVG/1.1/DTD/svg11.dtd">
<svg version="1.1" id="Capa_1" xmlns="http://www.w3.org/2000/svg" xmlns:xlink="http://www.w3.org/1999/xlink" x="0px" y="0px"
	 viewBox="0 0 58 58" style="enable-background:new 0 0 58 58;" xml:space="preserve">
<g>
	<path style="fill:#4FBA6F;" d="M44.923,29c0,3.334-1.022,6.428-2.767,8.991l9.281,9.281C55.49,42.285,57.923,35.927,57.923,29
		s-2.432-13.285-6.485-18.272l-9.281,9.281C43.901,22.572,44.923,25.666,44.923,29z"/>
	<path style="fill:#48A0DC;" d="M37.914,42.233C35.351,43.978,32.257,45,28.923,45c-7.81,0-14.304-5.599-15.709-13H0.077
		C1.578,46.606,13.92,58,28.923,58c6.928,0,13.285-2.432,18.272-6.485L37.914,42.233z"/>
	<path style="fill:#556080;" d="M13.214,26c1.405-7.401,7.899-13,15.709-13c3.334,0,6.428,1.022,8.991,2.767l9.281-9.281
		C42.208,2.432,35.85,0,28.923,0C13.92,0,1.578,11.393,0.077,26H13.214z"/>
</g>
<g>
</g>
<g>
</g>
<g>
</g>
<g>
</g>
<g>
</g>
<g>
</g>
<g>
</g>
<g>
</g>
<g>
</g>
<g>
</g>
<g>
</g>
<g>
</g>
<g>
</g>
<g>
</g>
<g>
</g>
</svg>
